<?xml version="1.0" encoding="utf-8"?>
<!-- Generator: Adobe Illustrator 26.3.1, SVG Export Plug-In . SVG Version: 6.00 Build 0)  -->
<svg version="1.1" id="Ebene_1" xmlns="http://www.w3.org/2000/svg" xmlns:xlink="http://www.w3.org/1999/xlink" x="0px" y="0px"
	 viewBox="0 0 842 550" style="enable-background:new 0 0 842 550;" xml:space="preserve">
<style type="text/css">
	.st0{fill:#FFFFFF;}
	.st1{clip-path:url(#SVGID_00000170272031799553073310000004835498663906330037_);fill:none;stroke:#F4F6F8;stroke-width:15;}
	.st2{clip-path:url(#SVGID_00000098199612476569037770000017328991352353156539_);fill:none;stroke:#F4F6F8;stroke-width:15;}
	.st3{clip-path:url(#SVGID_00000060737208753450758530000008989306728667878308_);fill:none;stroke:#F4F6F8;stroke-width:15;}
	.st4{clip-path:url(#SVGID_00000160883778019372147610000011214597262189055118_);fill:none;stroke:#F4F6F8;stroke-width:15;}
	.st5{clip-path:url(#SVGID_00000036939169757854156260000016540233506969298617_);fill:none;stroke:#F4F6F8;stroke-width:15;}
	.st6{clip-path:url(#SVGID_00000080886996226915648620000017316861661413246611_);fill:none;stroke:#F4F6F8;stroke-width:15;}
	.st7{clip-path:url(#SVGID_00000058573993807708084970000005416069318566283413_);fill:none;stroke:#F4F6F8;stroke-width:15;}
	.st8{clip-path:url(#SVGID_00000144330145578059771500000014785967132671129252_);fill:none;stroke:#F4F6F8;stroke-width:15;}
	.st9{clip-path:url(#SVGID_00000023996873332005492920000007652728583048113836_);fill:none;stroke:#F4F6F8;stroke-width:15;}
	.st10{clip-path:url(#SVGID_00000105387814586247304220000017518280618901979028_);fill:none;stroke:#F4F6F8;stroke-width:15;}
	.st11{clip-path:url(#SVGID_00000025401092337352308850000005361995284675351177_);fill:none;stroke:#F4F6F8;stroke-width:15;}
	.st12{clip-path:url(#SVGID_00000179612344663972436580000004905247094118457503_);fill:none;stroke:#F4F6F8;stroke-width:15;}
	.st13{clip-path:url(#SVGID_00000134928052793054458270000003226419902299524748_);fill:none;stroke:#F4F6F8;stroke-width:15;}
	.st14{clip-path:url(#SVGID_00000164492021896296183320000014597512128526597040_);fill:none;stroke:#F4F6F8;stroke-width:15;}
	.st15{clip-path:url(#SVGID_00000018219709182685014710000011397363601631795335_);fill:none;stroke:#FFFFFF;stroke-width:15;}
	.st16{clip-path:url(#SVGID_00000071552385448554106300000013509021321201264826_);fill:none;stroke:#FFFFFF;stroke-width:15;}
	.st17{clip-path:url(#SVGID_00000150806631352079983180000014699642704526427834_);fill:none;stroke:#FFFFFF;stroke-width:15;}
	.st18{fill:none;stroke:#FFFFFF;stroke-width:15;}
	.st19{clip-path:url(#SVGID_00000166652809115855441730000009812816373998707889_);fill:none;stroke:#FFFFFF;stroke-width:7;}
	.st20{clip-path:url(#SVGID_00000119117185647332433350000016805529487363820464_);fill:none;stroke:#FFFFFF;stroke-width:7;}
	.st21{clip-path:url(#SVGID_00000093168104864195260620000008857645818803580318_);fill:none;stroke:#FFFFFF;stroke-width:7;}
	.st22{clip-path:url(#SVGID_00000085932676426047744110000012004708023909837999_);fill:none;stroke:#FFFFFF;stroke-width:7;}
	.st23{clip-path:url(#SVGID_00000011714293307091670930000011965595830770816158_);fill:none;stroke:#FFFFFF;stroke-width:7;}
	.st24{clip-path:url(#SVGID_00000062871989701548054820000015898563309651067010_);fill:#3E678E;}
	.st25{clip-path:url(#SVGID_00000176018911890135083980000011772087181378272939_);fill:#E7343F;}
	.st26{clip-path:url(#SVGID_00000021080955357118575070000011070132009992476317_);fill:#3E678E;}
	.st27{clip-path:url(#SVGID_00000049914427573216600960000006846288640026433706_);fill:#35587A;}
	.st28{clip-path:url(#SVGID_00000030466706602938183590000008414375832389007281_);fill:#35587A;}
	.st29{clip-path:url(#SVGID_00000173865186247557086480000010111256071317521070_);fill:#35587A;}
	.st30{clip-path:url(#SVGID_00000049933998026373345970000002396083671553650845_);fill:#35587A;}
	.st31{clip-path:url(#SVGID_00000061471572282281225100000014605248706868765083_);fill:#35587A;}
	.st32{clip-path:url(#SVGID_00000183248712707732556440000012785769395048500384_);fill:#35587A;}
	.st33{clip-path:url(#SVGID_00000065071190120879726210000012323009338373651589_);fill:#35587A;}
	.st34{clip-path:url(#SVGID_00000054952569774836043480000003563190360769771656_);fill:#35587A;}
	.st35{clip-path:url(#SVGID_00000017511265607311418120000017238593610147720604_);fill:#35587A;}
	.st36{clip-path:url(#SVGID_00000015338437746190705100000011382149101304636859_);fill:#35587A;}
	.st37{clip-path:url(#SVGID_00000057828063672406244920000002386321628569608871_);fill:#35587A;}
	.st38{clip-path:url(#SVGID_00000039108162457189385450000005140936740277695885_);fill:#35587A;}
	.st39{clip-path:url(#SVGID_00000179645883517039149070000017641467716143085189_);fill:#35587A;}
	.st40{clip-path:url(#SVGID_00000098209627426299098520000002159715532353128620_);fill:#35587A;}
</style>
<polygon class="st0" points="555.7,0 532.2,18.5 570.1,68.5 532.2,100.1 560.7,134.8 381.1,269 484.1,422 611.7,369 751.5,364.3 
	596.4,0 "/>
<g>
	<g>
		<defs>
			<polygon id="SVGID_1_" points="555.7,0 532.2,18.5 570.1,68.5 532.2,100.1 560.7,134.8 381.1,269 484.1,422 611.7,369 
				751.5,364.3 596.4,0 			"/>
		</defs>
		<clipPath id="SVGID_00000013883575843585030880000016294048173237710013_">
			<use xlink:href="#SVGID_1_"  style="overflow:visible;"/>
		</clipPath>
		
			<line style="clip-path:url(#SVGID_00000013883575843585030880000016294048173237710013_);fill:none;stroke:#F4F6F8;stroke-width:15;" x1="188.8" y1="1.9" x2="943.9" y2="1.9"/>
	</g>
	<g>
		<defs>
			<polygon id="SVGID_00000039098681842413180790000013705078058864834208_" points="555.7,0 532.2,18.5 570.1,68.5 532.2,100.1 
				560.7,134.8 381.1,269 484.1,422 611.7,369 751.5,364.3 596.4,0 			"/>
		</defs>
		<clipPath id="SVGID_00000124140282473154597440000015511314770737031609_">
			<use xlink:href="#SVGID_00000039098681842413180790000013705078058864834208_"  style="overflow:visible;"/>
		</clipPath>
		
			<line style="clip-path:url(#SVGID_00000124140282473154597440000015511314770737031609_);fill:none;stroke:#F4F6F8;stroke-width:15;" x1="188.8" y1="33" x2="943.9" y2="33"/>
	</g>
	<g>
		<defs>
			<polygon id="SVGID_00000047048735219391811450000016212161744186177470_" points="555.7,0 532.2,18.5 570.1,68.5 532.2,100.1 
				560.7,134.8 381.1,269 484.1,422 611.7,369 751.5,364.3 596.4,0 			"/>
		</defs>
		<clipPath id="SVGID_00000074437189522643653760000002201125409573058217_">
			<use xlink:href="#SVGID_00000047048735219391811450000016212161744186177470_"  style="overflow:visible;"/>
		</clipPath>
		
			<line style="clip-path:url(#SVGID_00000074437189522643653760000002201125409573058217_);fill:none;stroke:#F4F6F8;stroke-width:15;" x1="188.8" y1="64.1" x2="943.9" y2="64.1"/>
	</g>
	<g>
		<defs>
			<polygon id="SVGID_00000181075010814527215870000001444759281369664445_" points="555.7,0 532.2,18.5 570.1,68.5 532.2,100.1 
				560.7,134.8 381.1,269 484.1,422 611.7,369 751.5,364.3 596.4,0 			"/>
		</defs>
		<clipPath id="SVGID_00000022532369780968452780000001119871486110354582_">
			<use xlink:href="#SVGID_00000181075010814527215870000001444759281369664445_"  style="overflow:visible;"/>
		</clipPath>
		
			<line style="clip-path:url(#SVGID_00000022532369780968452780000001119871486110354582_);fill:none;stroke:#F4F6F8;stroke-width:15;" x1="188.8" y1="95.3" x2="943.9" y2="95.3"/>
	</g>
	<g>
		<defs>
			<polygon id="SVGID_00000066478225616458601680000001535358902691628700_" points="555.7,0 532.2,18.5 570.1,68.5 532.2,100.1 
				560.7,134.8 381.1,269 484.1,422 611.7,369 751.5,364.3 596.4,0 			"/>
		</defs>
		<clipPath id="SVGID_00000063617673088501685420000002763224178945523589_">
			<use xlink:href="#SVGID_00000066478225616458601680000001535358902691628700_"  style="overflow:visible;"/>
		</clipPath>
		
			<line style="clip-path:url(#SVGID_00000063617673088501685420000002763224178945523589_);fill:none;stroke:#F4F6F8;stroke-width:15;" x1="188.8" y1="126.4" x2="943.9" y2="126.4"/>
	</g>
	<g>
		<defs>
			<polygon id="SVGID_00000085956586311364651150000011316091729113020810_" points="555.7,0 532.2,18.5 570.1,68.5 532.2,100.1 
				560.7,134.8 381.1,269 484.1,422 611.7,369 751.5,364.3 596.4,0 			"/>
		</defs>
		<clipPath id="SVGID_00000123440175182050002460000016067190019527559553_">
			<use xlink:href="#SVGID_00000085956586311364651150000011316091729113020810_"  style="overflow:visible;"/>
		</clipPath>
		
			<line style="clip-path:url(#SVGID_00000123440175182050002460000016067190019527559553_);fill:none;stroke:#F4F6F8;stroke-width:15;" x1="188.8" y1="157.6" x2="943.9" y2="157.6"/>
	</g>
	<g>
		<defs>
			<polygon id="SVGID_00000133528326337714260440000005923952286151132054_" points="555.7,0 532.2,18.5 570.1,68.5 532.2,100.1 
				560.7,134.8 381.1,269 484.1,422 611.7,369 751.5,364.3 596.4,0 			"/>
		</defs>
		<clipPath id="SVGID_00000104695775286711154040000004335766299434874526_">
			<use xlink:href="#SVGID_00000133528326337714260440000005923952286151132054_"  style="overflow:visible;"/>
		</clipPath>
		
			<line style="clip-path:url(#SVGID_00000104695775286711154040000004335766299434874526_);fill:none;stroke:#F4F6F8;stroke-width:15;" x1="188.8" y1="188.7" x2="943.9" y2="188.7"/>
	</g>
	<g>
		<defs>
			<polygon id="SVGID_00000158725278737603750200000015524347052673850044_" points="555.7,0 532.2,18.5 570.1,68.5 532.2,100.1 
				560.7,134.8 381.1,269 484.1,422 611.7,369 751.5,364.3 596.4,0 			"/>
		</defs>
		<clipPath id="SVGID_00000146476636078082736460000009743097522128554396_">
			<use xlink:href="#SVGID_00000158725278737603750200000015524347052673850044_"  style="overflow:visible;"/>
		</clipPath>
		
			<line style="clip-path:url(#SVGID_00000146476636078082736460000009743097522128554396_);fill:none;stroke:#F4F6F8;stroke-width:15;" x1="188.8" y1="219.9" x2="943.9" y2="219.9"/>
	</g>
	<g>
		<defs>
			<polygon id="SVGID_00000108278247309423974320000006628447051771037864_" points="555.7,0 532.2,18.5 570.1,68.5 532.2,100.1 
				560.7,134.8 381.1,269 484.1,422 611.7,369 751.5,364.3 596.4,0 			"/>
		</defs>
		<clipPath id="SVGID_00000057833060556804996550000010536973374101296301_">
			<use xlink:href="#SVGID_00000108278247309423974320000006628447051771037864_"  style="overflow:visible;"/>
		</clipPath>
		
			<line style="clip-path:url(#SVGID_00000057833060556804996550000010536973374101296301_);fill:none;stroke:#F4F6F8;stroke-width:15;" x1="188.8" y1="251" x2="943.9" y2="251"/>
	</g>
	<g>
		<defs>
			<polygon id="SVGID_00000148621370413578644000000004719415858574268342_" points="555.7,0 532.2,18.5 570.1,68.5 532.2,100.1 
				560.7,134.8 381.1,269 484.1,422 611.7,369 751.5,364.3 596.4,0 			"/>
		</defs>
		<clipPath id="SVGID_00000158731509696374240170000006161211704159118779_">
			<use xlink:href="#SVGID_00000148621370413578644000000004719415858574268342_"  style="overflow:visible;"/>
		</clipPath>
		
			<line style="clip-path:url(#SVGID_00000158731509696374240170000006161211704159118779_);fill:none;stroke:#F4F6F8;stroke-width:15;" x1="188.8" y1="282.1" x2="943.9" y2="282.1"/>
	</g>
	<g>
		<defs>
			<polygon id="SVGID_00000100344054162996734940000007304626671109789342_" points="555.7,0 532.2,18.5 570.1,68.5 532.2,100.1 
				560.7,134.8 381.1,269 484.1,422 611.7,369 751.5,364.3 596.4,0 			"/>
		</defs>
		<clipPath id="SVGID_00000003104349200399827110000005262986396990680744_">
			<use xlink:href="#SVGID_00000100344054162996734940000007304626671109789342_"  style="overflow:visible;"/>
		</clipPath>
		
			<line style="clip-path:url(#SVGID_00000003104349200399827110000005262986396990680744_);fill:none;stroke:#F4F6F8;stroke-width:15;" x1="188.8" y1="313.3" x2="943.9" y2="313.3"/>
	</g>
	<g>
		<defs>
			<polygon id="SVGID_00000182486338894065874310000001728215361540838582_" points="555.7,0 532.2,18.5 570.1,68.5 532.2,100.1 
				560.7,134.8 381.1,269 484.1,422 611.7,369 751.5,364.3 596.4,0 			"/>
		</defs>
		<clipPath id="SVGID_00000046313589103930303400000014924751040778691209_">
			<use xlink:href="#SVGID_00000182486338894065874310000001728215361540838582_"  style="overflow:visible;"/>
		</clipPath>
		
			<line style="clip-path:url(#SVGID_00000046313589103930303400000014924751040778691209_);fill:none;stroke:#F4F6F8;stroke-width:15;" x1="188.8" y1="344.4" x2="943.9" y2="344.4"/>
	</g>
	<g>
		<defs>
			<polygon id="SVGID_00000021803476728761057720000012148229650467005065_" points="555.7,0 532.2,18.5 570.1,68.5 532.2,100.1 
				560.7,134.8 381.1,269 484.1,422 611.7,369 751.5,364.3 596.4,0 			"/>
		</defs>
		<clipPath id="SVGID_00000090252188619318019890000013763030839836821407_">
			<use xlink:href="#SVGID_00000021803476728761057720000012148229650467005065_"  style="overflow:visible;"/>
		</clipPath>
		
			<line style="clip-path:url(#SVGID_00000090252188619318019890000013763030839836821407_);fill:none;stroke:#F4F6F8;stroke-width:15;" x1="188.8" y1="375.6" x2="943.9" y2="375.6"/>
	</g>
	<g>
		<defs>
			<polygon id="SVGID_00000181045432802502059690000014364317154413500042_" points="555.7,0 532.2,18.5 570.1,68.5 532.2,100.1 
				560.7,134.8 381.1,269 484.1,422 611.7,369 751.5,364.3 596.4,0 			"/>
		</defs>
		<clipPath id="SVGID_00000099663283809627570260000017183300405442966692_">
			<use xlink:href="#SVGID_00000181045432802502059690000014364317154413500042_"  style="overflow:visible;"/>
		</clipPath>
		
			<line style="clip-path:url(#SVGID_00000099663283809627570260000017183300405442966692_);fill:none;stroke:#F4F6F8;stroke-width:15;" x1="188.8" y1="406.7" x2="943.9" y2="406.7"/>
	</g>
</g>
<g>
	<g>
		<defs>
			<rect id="SVGID_00000040559200567899715900000007253410645479234222_" width="842" height="550"/>
		</defs>
		<clipPath id="SVGID_00000138573181673297467850000017369243657648072856_">
			<use xlink:href="#SVGID_00000040559200567899715900000007253410645479234222_"  style="overflow:visible;"/>
		</clipPath>
		
			<path style="clip-path:url(#SVGID_00000138573181673297467850000017369243657648072856_);fill:none;stroke:#FFFFFF;stroke-width:15;" d="
			M-209.4,580.7c0,0,60.5-124.7,124.7-161.6c64.3-36.9,500.8-309,500.8-309l325-267.4"/>
	</g>
	<g>
		<defs>
			<rect id="SVGID_00000067209526835535839370000002008943769059694244_" width="842" height="550"/>
		</defs>
		<clipPath id="SVGID_00000013168325638830763880000000750649551904943804_">
			<use xlink:href="#SVGID_00000067209526835535839370000002008943769059694244_"  style="overflow:visible;"/>
		</clipPath>
		
			<polyline style="clip-path:url(#SVGID_00000013168325638830763880000000750649551904943804_);fill:none;stroke:#FFFFFF;stroke-width:15;" points="
			523.8,-163.9 583.3,-66.6 587.1,-32.6 754.4,362.4 611.7,369.9 481.3,422.9 250.7,593.9 6,722.4 		"/>
	</g>
	<g>
		<defs>
			<rect id="SVGID_00000005256368610777063920000001630549406754632345_" width="842" height="550"/>
		</defs>
		<clipPath id="SVGID_00000133516242677450552460000008213554352404622770_">
			<use xlink:href="#SVGID_00000005256368610777063920000001630549406754632345_"  style="overflow:visible;"/>
		</clipPath>
		
			<polyline style="clip-path:url(#SVGID_00000133516242677450552460000008213554352404622770_);fill:none;stroke:#FFFFFF;stroke-width:15;" points="
			10.7,62.9 130.7,288.7 203.5,370.9 257.4,524.9 248.9,597.7 		"/>
	</g>
</g>
<line class="st18" x1="481.3" y1="421.9" x2="320.7" y2="171.5"/>
<g>
	<g>
		<defs>
			<rect id="SVGID_00000093855208410478113520000003829335229013107615_" width="842" height="550"/>
		</defs>
		<clipPath id="SVGID_00000049201973883444461350000000563698588849611148_">
			<use xlink:href="#SVGID_00000093855208410478113520000003829335229013107615_"  style="overflow:visible;"/>
		</clipPath>
		
			<line style="clip-path:url(#SVGID_00000049201973883444461350000000563698588849611148_);fill:none;stroke:#FFFFFF;stroke-width:7;" x1="613.6" y1="373.7" x2="762.9" y2="711.1"/>
	</g>
	<g>
		<defs>
			<rect id="SVGID_00000025412253818311791310000008105367283500972166_" width="842" height="550"/>
		</defs>
		<clipPath id="SVGID_00000083055453823435313910000001834081826505366146_">
			<use xlink:href="#SVGID_00000025412253818311791310000008105367283500972166_"  style="overflow:visible;"/>
		</clipPath>
		
			<line style="clip-path:url(#SVGID_00000083055453823435313910000001834081826505366146_);fill:none;stroke:#FFFFFF;stroke-width:7;" x1="759.1" y1="366.2" x2="1005.7" y2="291.5"/>
	</g>
	<g>
		<defs>
			<rect id="SVGID_00000045592827719340948180000005065146599957078417_" width="842" height="550"/>
		</defs>
		<clipPath id="SVGID_00000151501650736134385800000006463223706800199042_">
			<use xlink:href="#SVGID_00000045592827719340948180000005065146599957078417_"  style="overflow:visible;"/>
		</clipPath>
		
			<polyline style="clip-path:url(#SVGID_00000151501650736134385800000006463223706800199042_);fill:none;stroke:#FFFFFF;stroke-width:7;" points="
			231.8,218.8 125.1,10.9 110,-160.1 		"/>
	</g>
	<g>
		<defs>
			<rect id="SVGID_00000019669552743145614890000010632187680026220965_" width="842" height="550"/>
		</defs>
		<clipPath id="SVGID_00000105415602282773148550000004146529636241535112_">
			<use xlink:href="#SVGID_00000019669552743145614890000010632187680026220965_"  style="overflow:visible;"/>
		</clipPath>
		
			<polyline style="clip-path:url(#SVGID_00000105415602282773148550000004146529636241535112_);fill:none;stroke:#FFFFFF;stroke-width:7;" points="
			-113.7,110.1 11.7,64.8 122.2,9 		"/>
	</g>
	<g>
		<defs>
			<rect id="SVGID_00000036251192405157996250000010466655703069202572_" width="842" height="550"/>
		</defs>
		<clipPath id="SVGID_00000153690984036337923690000006703654505033760180_">
			<use xlink:href="#SVGID_00000036251192405157996250000010466655703069202572_"  style="overflow:visible;"/>
		</clipPath>
		
			<path style="clip-path:url(#SVGID_00000153690984036337923690000006703654505033760180_);fill:none;stroke:#FFFFFF;stroke-width:7;" d="
			M-196.2,3.3c0,0,133.2,168.2,145.5,182.4s87.9,157.8,87.9,157.8"/>
	</g>
	<g>
		<defs>
			<rect id="SVGID_00000087400421696918223360000005495071868509389954_" width="842" height="550"/>
		</defs>
		<clipPath id="SVGID_00000071538317562440142230000016778498646795513217_">
			<use xlink:href="#SVGID_00000087400421696918223360000005495071868509389954_"  style="overflow:visible;"/>
		</clipPath>
		<path style="clip-path:url(#SVGID_00000071538317562440142230000016778498646795513217_);fill:#3E678E;" d="M342.6,115.4
			c-1,1.2-1.6,2.9-1.6,4.8c0,0.5,0,0.9,0.1,1.4c0.2,1.5,0.9,2.9,1.7,4l0,0c0,0,0,0.1,0,0.2c0,0.2-0.1,0.3-0.3,0.3h-0.1
			c0,0-0.1,0-0.1-0.1c-2.7-1.5-4.6-4.4-4.6-7.8c0-3.3,3.3-6.9,6-9.8c0.2-0.2,0.3-0.3,0.5-0.5l2.4,2.5c-0.1,0.1-0.2,0.2-0.3,0.3
			C345.4,112,343.8,113.8,342.6,115.4"/>
	</g>
	<g>
		<defs>
			<rect id="SVGID_00000152257376356782127650000006800196399467790000_" width="842" height="550"/>
		</defs>
		<clipPath id="SVGID_00000111160884334484061620000008237556017939970484_">
			<use xlink:href="#SVGID_00000152257376356782127650000006800196399467790000_"  style="overflow:visible;"/>
		</clipPath>
		<path style="clip-path:url(#SVGID_00000111160884334484061620000008237556017939970484_);fill:#E7343F;" d="M355.8,118.2
			c0,3.3-1.8,6.3-4.6,7.8l0,0c0,0,0,0-0.1,0l0,0H351c-0.2,0-0.3-0.1-0.3-0.3c0-0.1,0-0.1,0.1-0.2l0,0c0.9-1.1,1.5-2.5,1.7-4
			c0.1-0.5,0.1-0.9,0.1-1.4c0-1.9-0.6-3.6-1.6-4.8l0,0c-1-1.4-2.4-3-3.5-4.2c-0.1-0.1-0.2-0.2-0.3-0.3c-0.1-0.1-0.2-0.2-0.3-0.3
			l-0.1-0.1l-2.4-2.5l0,0l-0.1-0.1l-9.6-9.6c-2.8-2.8-2.8-7.3,0-10.1c2.7-2.7,6.9-2.8,9.7-0.3c0.1,0.1,0.2,0.2,0.3,0.3l2,2
			c0,0-1.5,1.8-3.2,1.2c-0.4-0.1-0.8-0.4-1.3-0.8c-0.7-0.7-1.6-1.1-2.6-1.1c-0.9,0-1.9,0.4-2.6,1.1c-1.4,1.4-1.4,3.7,0,5.1l9.6,9.6
			l2.4,2.5c0.2,0.2,0.4,0.4,0.5,0.6C352.5,111.3,355.8,114.9,355.8,118.2"/>
	</g>
	<g>
		<defs>
			<rect id="SVGID_00000165938062693754532020000006537478478659407034_" width="842" height="550"/>
		</defs>
		<clipPath id="SVGID_00000008870015321021834180000000859341269550548388_">
			<use xlink:href="#SVGID_00000165938062693754532020000006537478478659407034_"  style="overflow:visible;"/>
		</clipPath>
		<path style="clip-path:url(#SVGID_00000008870015321021834180000000859341269550548388_);fill:#3E678E;" d="M359,98.1l-9.7,9.7
			l-2.4-2.5l9.6-9.6c1.4-1.4,1.4-3.7,0-5.1s-3.7-1.4-5.1,0l-1.9,1.9l-0.3,0.3c-0.6,0.5-1.4,0.8-2.2,0.8c-0.9,0-1.6-0.3-2.2-0.8
			l-2.3-2.3c0.4,0.4,0.9,0.7,1.3,0.8c1.8,0.5,3.2-1.2,3.2-1.2l2-2c0.1-0.1,0.2-0.2,0.3-0.3c2.8-2.5,7.1-2.3,9.7,0.3
			C361.7,90.9,361.7,95.4,359,98.1"/>
	</g>
</g>
<g>
	<g>
		<defs>
			<rect id="SVGID_00000144316159717065563670000000499903863315205761_" width="842" height="550"/>
		</defs>
		<clipPath id="SVGID_00000036244150837939993460000015753672513720106172_">
			<use xlink:href="#SVGID_00000144316159717065563670000000499903863315205761_"  style="overflow:visible;"/>
		</clipPath>
		<path style="clip-path:url(#SVGID_00000036244150837939993460000015753672513720106172_);fill:#35587A;" d="M594.6,264.3v-10.8
			h3.6v-1.8H589v1.8h3.6v10.8H594.6z M578.8,264.3v-5.4h1.1l4.4,5.4h2.5l-5.3-6.4l4.9-6.2H584l-4.1,5.3h-1.1v-5.3h-2v12.6H578.8z
			 M565.9,253.6h2.5c1.4,0,2.3,0.6,2.3,1.9s-0.8,1.9-2.3,1.9h-2.5V253.6z M565.9,264.3v-5.2h0.9l3.6,5.2h2.3l-3.7-5.2
			c2.3-0.2,3.7-1.6,3.7-3.6c0-2.4-1.5-3.7-4.3-3.7h-4.5v12.6L565.9,264.3L565.9,264.3z M554.8,253.8l1.9,5.6h-3.8L554.8,253.8z
			 M551.3,264.3l1.1-3.1h5l1.1,3.1h2.1l-4.4-12.6h-2.4l-4.4,12.6H551.3z M535.4,264.3v-10l3.2,8h2l3.2-8v10.1h1.9v-12.6h-2.8
			l-3.3,8.2l-3.3-8.2h-2.8v12.6h1.9V264.3z"/>
	</g>
	<g>
		<defs>
			<rect id="SVGID_00000018920331370853037070000003597457138605269659_" width="842" height="550"/>
		</defs>
		<clipPath id="SVGID_00000082366951576484909680000002816410536067820684_">
			<use xlink:href="#SVGID_00000018920331370853037070000003597457138605269659_"  style="overflow:visible;"/>
		</clipPath>
		<path style="clip-path:url(#SVGID_00000082366951576484909680000002816410536067820684_);fill:#35587A;" d="M694.5,172.4
			c0.4,0.8,0.9,1.4,1.5,1.7l0.5-0.7c-0.5-0.2-0.9-0.7-1.1-1.2c-0.4-0.9-0.1-1.7,1-2.2l4.5-2l1.3,3.1l0.8-0.4l-1.3-3.1l2.4-1
			l-0.4-0.9l-2.4,1l-0.7-1.6l-0.8,0.4l0.7,1.6l-4.6,2C694.3,169.8,693.9,171,694.5,172.4 M690.4,162.7l3.7-1.6l0.5,1.1l-2.4,4.5
			l0.5,1.1l2.7-5.1l5.1,1.6l-0.5-1.1l-4.5-1.4l-0.5-1.1l7.4-3.2l-0.4-0.9l-11.9,5.2L690.4,162.7z M687.9,156.9l4.6-2
			c1.4-0.6,2.7-0.3,3.2,0.9c0.2,0.4,0.3,0.8,0.2,1.2l1-0.1c0-0.4-0.1-0.9-0.3-1.3c-0.4-0.9-1.2-1.5-2.1-1.6l1.1-0.5l-0.4-0.9
			l-7.8,3.4L687.9,156.9z M685.6,149.8c-0.7-1.5,0.2-3.1,2-3.9c1.9-0.8,3.6-0.3,4.3,1.2s-0.1,3.1-2,3.9
			C688,151.8,686.3,151.3,685.6,149.8 M684.7,150c0.5,1.2,1.5,1.9,2.6,2l-1.4,0.6l0.4,0.9l7.8-3.4l-0.4-0.9l-1.3,0.6
			c0.6-0.9,0.8-2.1,0.3-3.3c-0.8-1.9-3.1-2.6-5.5-1.6C684.9,146,683.9,148.1,684.7,150 M678.3,135l10.3-4.5l-6.4,7.3l0.4,1l9.7,0.3
			l-10.3,4.5l0.4,1l11.6-5l-0.6-1.4l-9.9-0.3l6.5-7.4l-0.6-1.4l-11.6,5L678.3,135z"/>
	</g>
	<g>
		<defs>
			<rect id="SVGID_00000055696974003151600690000006855319891286675625_" width="842" height="550"/>
		</defs>
		<clipPath id="SVGID_00000118378870329128428560000015851163699875980708_">
			<use xlink:href="#SVGID_00000055696974003151600690000006855319891286675625_"  style="overflow:visible;"/>
		</clipPath>
		<path style="clip-path:url(#SVGID_00000118378870329128428560000015851163699875980708_);fill:#35587A;" d="M826,332.1
			c0.4-0.1,0.6-0.5,0.5-0.9s-0.5-0.6-0.9-0.5s-0.6,0.5-0.5,0.9C825.2,331.9,825.6,332.2,826,332.1 M821.6,333.2l-1.4-4.9
			c-0.4-1.4,0.1-2.7,1.3-3.1c0.4-0.1,0.9-0.2,1.2-0.1v-1c-0.4-0.1-0.9,0-1.3,0.1c-1,0.3-1.6,1-1.8,1.9l-0.3-1.1l-0.9,0.3l2.4,8.1
			L821.6,333.2z M817,334.7c0.9-0.3,1.5-0.7,1.9-1.3l-0.6-0.6c-0.3,0.4-0.8,0.8-1.4,1c-1,0.3-1.7-0.1-2.1-1.3l-1.4-4.7l3.2-1
			l-0.3-0.9l-3.2,1l-0.7-2.5l-0.9,0.3l0.7,2.5l-1.7,0.5l0.3,0.9l1.7-0.5l1.4,4.8C814.3,334.6,815.5,335.2,817,334.7 M808.8,337.1
			c1.8-0.5,2.8-1.8,2.4-3.3c-0.4-1.2-1.4-1.7-2.9-1.5l-0.9,0.1c-1.2,0.1-1.9-0.2-2.1-0.9c-0.3-0.9,0.4-1.7,1.5-2
			c0.9-0.3,1.9-0.2,2.5,0.1l0.2-0.8c-0.8-0.3-1.9-0.4-3-0.1c-1.7,0.5-2.6,1.7-2.1,3.1c0.3,1.1,1.2,1.7,2.9,1.5l0.9-0.1
			c1.2-0.1,1.9,0.2,2.1,0.9c0.3,1-0.4,1.7-1.7,2.1c-1.1,0.3-2,0.2-2.7-0.1l-0.3,0.8C806.6,337.4,807.7,337.5,808.8,337.1
			 M798.5,340.1l-1.5-5c-0.4-1.4,0.3-2.7,1.6-3.1c1.4-0.4,2.5,0.2,2.9,1.7l1.5,5l0.9-0.3l-1.6-5.3c-0.5-1.8-2.1-2.6-3.8-2.1
			c-1,0.3-1.9,1-2.2,2.1l-0.4-1.2l-0.9,0.3l2.4,8.1L798.5,340.1z M792.4,341.9L791,337c-0.4-1.4,0.1-2.7,1.3-3.1
			c0.4-0.1,0.9-0.2,1.2-0.1v-1c-0.4-0.1-0.9,0-1.3,0.1c-1,0.3-1.6,1-1.8,1.9l-0.3-1.1l-0.9,0.3l2.4,8.1L792.4,341.9z M785.5,343.1
			c-1.6,0.5-3.1-0.5-3.7-2.5c-0.6-2,0.2-3.6,1.7-4.1c1.6-0.5,3.1,0.5,3.7,2.5C787.8,341,787.1,342.6,785.5,343.1 M785.7,344
			c2.1-0.6,3.2-2.8,2.4-5.3c-0.7-2.5-2.8-3.7-4.9-3.1c-2.1,0.6-3.2,2.8-2.4,5.3S783.6,344.6,785.7,344 M774,347.3l-1.7-5.6l1.3-0.4
			l6.5,4.2l1.3-0.4l-7.2-4.5l3.3-7.4l-1.2,0.4l-3,6.9l-1.4,0.4l-1.6-5.5l-1,0.3l3.6,12.1L774,347.3z"/>
	</g>
	<g>
		<defs>
			<rect id="SVGID_00000035508878480507848420000017067603490563603072_" width="842" height="550"/>
		</defs>
		<clipPath id="SVGID_00000036953258385322556090000008401684079615297924_">
			<use xlink:href="#SVGID_00000035508878480507848420000017067603490563603072_"  style="overflow:visible;"/>
		</clipPath>
		<path style="clip-path:url(#SVGID_00000036953258385322556090000008401684079615297924_);fill:#35587A;" d="M718.9,392.5
			c0.9,0,1.6-0.4,2.1-0.8l-0.5-0.7c-0.4,0.4-1,0.6-1.6,0.6c-1,0-1.7-0.5-1.7-1.8l-0.2-4.9l3.4-0.1v-0.9L717,384l-0.1-2.6h-1l0.1,2.6
			l-1.7,0.1v0.9l1.7-0.1l0.2,5C716.4,391.7,717.4,392.5,718.9,392.5 M708.4,392.8l-0.2-4l1.2-0.1l3.3,3.8l1.2-0.1l-3.8-4.3l3.3-4.2
			l-1.2,0.1l-2.9,3.7l-1.2,0.1l-0.4-8h-1l0.6,12.9L708.4,392.8z M702.1,393.1l-0.2-5.1c-0.1-1.5,0.7-2.6,2-2.7
			c0.4,0,0.9,0.1,1.2,0.2l0.2-1c-0.4-0.2-0.8-0.2-1.3-0.2c-1,0-1.8,0.5-2.3,1.4l-0.1-1.2h-1l0.4,8.5L702.1,393.1z M694.6,392.6
			c-1.7,0.1-2.9-1.3-3-3.3s1-3.5,2.7-3.5c1.6-0.1,2.9,1.2,2.9,3.3C697.3,391.1,696.3,392.5,694.6,392.6 M694.5,393.5
			c1.3-0.1,2.3-0.7,2.9-1.7l0.1,1.5h1l-0.4-8.5h-1l0.1,1.5c-0.7-0.9-1.7-1.5-3-1.5c-2.1,0.1-3.6,1.9-3.5,4.5
			C690.8,391.9,692.4,393.6,694.5,393.5 M678.2,394.1l-0.5-11.2l4.5,8.6h1l3.7-9l0.5,11.2h1l-0.5-12.6l-1.5,0.1l-3.8,9.1l-4.6-8.7
			l-1.5,0.1l0.5,12.6L678.2,394.1z"/>
	</g>
	<g>
		<defs>
			<rect id="SVGID_00000075149371550428293540000008111276214620631959_" width="842" height="550"/>
		</defs>
		<clipPath id="SVGID_00000060006367465342752510000004757936868819534253_">
			<use xlink:href="#SVGID_00000075149371550428293540000008111276214620631959_"  style="overflow:visible;"/>
		</clipPath>
		<path style="clip-path:url(#SVGID_00000060006367465342752510000004757936868819534253_);fill:#35587A;" d="M649.6,506.5
			c1.7-0.6,3.2-0.2,3.8,1.1c0.6,1.3,0,2.7-1.6,3.6L649.6,506.5z M646.4,511.1c0.5,1,1.2,1.8,2.5,2.2l0.3-0.8
			c-0.9-0.3-1.6-0.8-2.1-1.8c-0.7-1.4-0.2-3,1.6-3.9l2.7,5.6c0.1,0,0.2-0.1,0.3-0.1c2.4-1.1,3.3-3.2,2.4-5c-0.9-2-3.1-2.6-5.5-1.5
			C646.3,507,645.4,509.1,646.4,511.1 M642.7,503.3c0.8,1.7,2.6,2.4,4.6,1.4c1.5-0.7,2.2-2.1,1.9-3.4c0.8,0.8,2.1,1.1,3.6,0.4
			c1.8-0.9,2.4-2.8,1.5-4.7c-1-2.1-2.9-2.5-4.8-1.6l-8.5,4.1l0.4,0.9l8.5-4c1.6-0.7,2.9-0.3,3.6,1.1c0.6,1.3,0.3,2.7-1.2,3.4
			c-1.6,0.8-2.8,0.1-3.3-1.1l-0.2-0.4l-0.8,0.4l0.3,0.6c0.7,1.4,0.2,2.8-1.3,3.5c-1.6,0.8-2.9,0.2-3.5-1c-0.3-0.6-0.4-1.1-0.3-1.5
			l-0.9,0.1C642.2,502,642.3,502.6,642.7,503.3 M639,493.4c-0.7-1.5,0-3.1,1.9-4s3.6-0.4,4.3,1.1s0,3.1-1.9,4
			C641.4,495.3,639.7,494.9,639,493.4 M638,493.7c0.6,1.2,1.6,1.8,2.7,2l-1.3,0.6l0.4,0.9l7.7-3.7l-0.4-0.9l-1.3,0.6
			c0.6-1,0.7-2.1,0.2-3.3c-0.9-1.9-3.2-2.5-5.5-1.4C638.1,489.6,637.1,491.8,638,493.7 M634.7,486.3l4.6-2.2
			c1.4-0.6,2.7-0.3,3.2,0.8c0.2,0.4,0.3,0.8,0.3,1.2l1-0.2c0-0.4-0.1-0.9-0.3-1.3c-0.4-0.9-1.2-1.4-2.2-1.5l1.1-0.5l-0.4-0.9
			l-7.7,3.6L634.7,486.3z M632.5,482c0.4,0.8,1,1.3,1.6,1.6l0.5-0.7c-0.5-0.2-0.9-0.6-1.2-1.2c-0.4-0.9-0.2-1.7,0.9-2.3l4.5-2.1
			l1.4,3l0.8-0.4l-1.4-3l2.3-1.1l-0.4-0.9l-2.3,1.1l-0.7-1.6l-0.8,0.4l0.7,1.6l-4.5,2.1C632.2,479.3,631.8,480.6,632.5,482
			 M628.8,474.3c0.8,1.7,2.2,2.5,3.6,1.8c1.1-0.5,1.4-1.6,1-3.1l-0.2-0.9c-0.3-1.2-0.1-1.9,0.6-2.2c0.8-0.4,1.7,0.1,2.2,1.1
			c0.4,0.9,0.5,1.8,0.3,2.5l0.8,0.1c0.2-0.8,0.1-1.9-0.4-3c-0.7-1.6-2.1-2.3-3.4-1.6c-1,0.5-1.5,1.5-1.1,3.1l0.2,0.9
			c0.3,1.2,0.1,1.9-0.6,2.2c-0.9,0.4-1.8-0.2-2.4-1.4c-0.5-1.1-0.5-1.9-0.3-2.7l-0.9-0.1C628.2,472.1,628.3,473.2,628.8,474.3
			 M624.3,464.5l4.7-2.2c1.3-0.6,2.7-0.1,3.3,1.1c0.6,1.3,0.2,2.5-1.2,3.2l-4.7,2.3l0.4,0.9l5-2.4c1.7-0.8,2.2-2.4,1.4-4.1
			c-0.5-1-1.3-1.7-2.4-1.8l5.1-2.5l-0.4-0.9l-11.7,5.6L624.3,464.5z M622.1,460.2c0.4,0.8,1,1.3,1.6,1.6l0.5-0.7
			c-0.5-0.2-0.9-0.6-1.2-1.2c-0.4-0.9-0.2-1.7,0.9-2.3l4.5-2.1l1.4,3l0.8-0.4l-1.4-3l2.3-1.1l-0.4-0.9l-2.3,1.1l-0.7-1.6l-0.8,0.4
			l0.7,1.6l-4.5,2.1C621.8,457.6,621.4,458.8,622.1,460.2 M618.4,452.2l4.6-2.2c1.4-0.6,2.7-0.3,3.2,0.8c0.2,0.4,0.3,0.8,0.3,1.2
			l1-0.2c0-0.4-0.1-0.9-0.3-1.3c-0.4-0.9-1.2-1.4-2.2-1.5l1.1-0.5l-0.4-0.9l-7.7,3.6L618.4,452.2z M616.1,445.6
			c-0.7-1.5,0-3.1,1.9-4s3.6-0.4,4.3,1.1s0,3.2-1.9,4.1C618.6,447.6,616.8,447.1,616.1,445.6 M615.3,446c1,2,3.2,2.7,5.6,1.6
			c2.3-1.1,3.2-3.3,2.3-5.3c-1-2-3.2-2.7-5.6-1.6C615.2,441.8,614.3,444,615.3,446 M608.6,431.7l11.4-1.8l-8.6,7.7l0.5,1.1l13-2.1
			l-0.5-1l-11.7,1.9l8.8-7.9l-0.5-1l-11.7,1.9l8.9-7.8l-0.5-1l-9.8,8.8L608.6,431.7z"/>
	</g>
	<g>
		<defs>
			<rect id="SVGID_00000036969468774568130890000012127375628521005489_" width="842" height="550"/>
		</defs>
		<clipPath id="SVGID_00000000198252772579008790000017760314125277223357_">
			<use xlink:href="#SVGID_00000036969468774568130890000012127375628521005489_"  style="overflow:visible;"/>
		</clipPath>
		<path style="clip-path:url(#SVGID_00000000198252772579008790000017760314125277223357_);fill:#35587A;" d="M571.2,417.2
			c0.8-0.3,1.4-0.9,1.7-1.5l-0.7-0.5c-0.3,0.5-0.7,0.9-1.3,1.1c-0.9,0.4-1.7,0.1-2.2-1.1l-1.8-4.6l3.1-1.3l-0.3-0.8l-3.1,1.3l-1-2.4
			l-0.9,0.4l1,2.4l-1.6,0.6l0.3,0.8l1.6-0.6l1.9,4.6C568.5,417.4,569.7,417.8,571.2,417.2 M561.4,421.1l-1.5-3.7l1.1-0.4l4.4,2.5
			l1.1-0.4l-5-2.8l1.8-5l-1.1,0.4l-1.5,4.5l-1.1,0.4l-3-7.5l-0.9,0.4l4.9,12L561.4,421.1z M555.5,423.5l-1.9-4.7
			c-0.6-1.4-0.2-2.7,1-3.2c0.4-0.2,0.8-0.2,1.2-0.2l-0.1-1c-0.4,0-0.9,0-1.3,0.2c-0.9,0.4-1.5,1.1-1.7,2.1l-0.4-1.1l-0.9,0.4
			l3.2,7.9L555.5,423.5z M548.3,425.5c-1.5,0.6-3.1-0.2-3.9-2.1c-0.8-1.9-0.2-3.6,1.3-4.2s3.1,0.2,3.9,2.1
			C550.4,423.2,549.8,424.9,548.3,425.5 M548.5,426.4c1.2-0.5,1.9-1.5,2.1-2.6l0.6,1.4l0.9-0.4l-3.2-7.9l-0.9,0.4l0.5,1.4
			c-0.9-0.7-2.1-0.9-3.3-0.4c-2,0.8-2.7,3-1.7,5.4C544.5,426.1,546.6,427.2,548.5,426.4 M533.3,432.4l-4.2-10.4l7.1,6.6l1-0.4
			l0.5-9.7l4.2,10.4l1-0.4l-4.7-11.7l-1.4,0.6l-0.5,9.8l-7.2-6.7l-1.4,0.6l4.7,11.7L533.3,432.4z"/>
	</g>
	<g>
		<defs>
			<rect id="SVGID_00000071548817328086888240000011505188651140477850_" width="842" height="550"/>
		</defs>
		<clipPath id="SVGID_00000105403888810045834920000012106262043808794266_">
			<use xlink:href="#SVGID_00000071548817328086888240000011505188651140477850_"  style="overflow:visible;"/>
		</clipPath>
		<path style="clip-path:url(#SVGID_00000105403888810045834920000012106262043808794266_);fill:#35587A;" d="M412.9,451.2l-4.5-6.1
			l2.6-1.9l-0.5-0.7l-2.6,1.9l-1-1.3c-0.8-1-0.8-1.9,0.1-2.6c0.5-0.4,1-0.5,1.5-0.6l-0.2-0.9c-0.6,0-1.3,0.2-2,0.7
			c-1.4,1-1.4,2.4-0.3,3.9l1,1.3l-1.5,1.1l0.5,0.7l1.5-1.1l4.5,6.1L412.9,451.2z M406.2,455.2c-1.3,1-3.1,0.6-4.3-1.1
			c-1.2-1.7-1.1-3.5,0.3-4.4c1.3-1,3.1-0.6,4.3,1.1C407.7,452.4,407.5,454.2,406.2,455.2 M406.7,455.9c1.8-1.3,2.1-3.7,0.5-5.8
			c-1.5-2.1-3.9-2.6-5.7-1.3c-1.8,1.3-2.1,3.7-0.5,5.8C402.6,456.7,404.9,457.2,406.7,455.9 M397.2,462.7l-3.1-4.2
			c-0.9-1.2-0.6-2.6,0.5-3.4c1.2-0.9,2.4-0.6,3.3,0.6l3.1,4.3l0.8-0.6l-3.3-4.5c-1.1-1.5-2.8-1.8-4.3-0.7c-0.9,0.6-1.4,1.6-1.4,2.6
			l-3.3-4.6l-0.8,0.6l7.6,10.5L397.2,462.7z M389.6,468.2l-3.1-4.2c-0.9-1.2-0.6-2.6,0.5-3.4c1.2-0.9,2.4-0.6,3.3,0.6l3.1,4.3
			l0.8-0.6l-3.3-4.5c-1.1-1.5-2.8-1.8-4.3-0.7c-0.9,0.6-1.4,1.6-1.4,2.7l-3.3-4.6l-0.8,0.6l7.6,10.5L389.6,468.2z M385.1,471.6
			c0.9-0.7,1.4-1.6,1.5-2.7l-0.9-0.1c-0.1,0.8-0.4,1.6-1.1,2.1c-1.3,0.9-3,0.6-4.3-1.1c-1.2-1.7-1.1-3.5,0.2-4.4
			c0.7-0.5,1.5-0.6,2.3-0.4l0.2-0.9c-1-0.3-2.1-0.1-3,0.6c-1.8,1.3-2,3.6-0.5,5.8C381,472.4,383.3,472.9,385.1,471.6 M378.3,476.4
			l-3-4.1c-0.9-1.2-0.8-2.6,0.2-3.3c0.3-0.2,0.8-0.4,1.1-0.5l-0.3-0.9c-0.4,0.1-0.8,0.2-1.2,0.5c-0.8,0.6-1.2,1.5-1.1,2.4l-0.7-1
			l-0.8,0.6l5,6.9L378.3,476.4z M375.3,478.6l-5-6.9l-0.8,0.6l5,6.9L375.3,478.6z M368.5,470.1c0.3-0.2,0.4-0.6,0.2-0.9
			c-0.2-0.3-0.6-0.4-0.9-0.2c-0.3,0.2-0.4,0.6-0.1,0.9C367.8,470.2,368.2,470.3,368.5,470.1 M368.7,483.4l-2.3-3.2l1-0.7l4.9,1.4
			l1-0.7l-5.5-1.5l0.5-5.3l-1,0.7l-0.4,4.7l-1,0.7l-4.7-6.5l-0.8,0.6l7.6,10.5L368.7,483.4z M364.8,486.3c0.7-0.5,1.1-1.2,1.3-1.9
			l-0.8-0.4c-0.1,0.5-0.5,1-1,1.4c-0.8,0.6-1.7,0.5-2.4-0.5l-2.9-4l2.7-2l-0.5-0.7l-2.7,2l-1.5-2.1l-0.8,0.6l1.5,2.1l-1.4,1l0.5,0.7
			l1.4-1l2.9,4C362.3,487.1,363.6,487.2,364.8,486.3 M356.3,492.4l-2.3-3.2l1-0.7l4.9,1.4l1-0.7l-5.5-1.5l0.5-5.3l-1,0.7l-0.4,4.7
			l-1,0.7l-4.7-6.5l-0.8,0.6l7.6,10.5L356.3,492.4z M351.1,496.1l-3-4.1c-0.9-1.2-0.8-2.6,0.2-3.3c0.3-0.2,0.8-0.4,1.1-0.5l-0.3-0.9
			c-0.4,0.1-0.8,0.2-1.2,0.5c-0.8,0.6-1.2,1.5-1.1,2.4l-0.7-1l-0.8,0.6l5,6.9L351.1,496.1z M344.6,499.9c-1.3,1-3.1,0.5-4.3-1.1
			c-1.2-1.7-1.1-3.4,0.3-4.4c1.3-1,3.1-0.5,4.3,1.1C346.1,497.1,346,498.9,344.6,499.9 M345,500.7c1.1-0.8,1.5-1.9,1.4-3l0.9,1.2
			l0.8-0.6l-5-6.9l-0.8,0.6l0.9,1.2c-1.1-0.4-2.2-0.3-3.3,0.4c-1.7,1.2-1.9,3.6-0.4,5.7C341.1,501.4,343.3,501.9,345,500.7
			 M331.8,510.2l-6.6-9l8.5,4.7l0.8-0.6l-1.8-9.5l6.6,9.1l0.8-0.6l-7.4-10.2l-1.2,0.9l1.9,9.7l-8.6-4.8l-1.2,0.9L331,511
			L331.8,510.2z"/>
	</g>
	<g>
		<defs>
			<rect id="SVGID_00000057143572562971811540000014040285988431484839_" width="842" height="550"/>
		</defs>
		<clipPath id="SVGID_00000060733419786377969390000001712132581285591191_">
			<use xlink:href="#SVGID_00000057143572562971811540000014040285988431484839_"  style="overflow:visible;"/>
		</clipPath>
		<path style="clip-path:url(#SVGID_00000060733419786377969390000001712132581285591191_);fill:#35587A;" d="M386.8,330.7
			c0.5,0.7,1.1,1.2,1.8,1.4l0.4-0.8c-0.5-0.2-1-0.5-1.3-1c-0.5-0.8-0.4-1.7,0.6-2.4l4.1-2.7l1.8,2.8l0.8-0.5l-1.8-2.8l2.2-1.4
			l-0.5-0.8l-2.2,1.4l-0.9-1.4L391,323l0.9,1.4l-4.2,2.7C386.2,328.1,385.9,329.4,386.8,330.7 M381.1,321.8l3.3-2.2l0.6,1l-1.6,4.8
			l0.7,1l1.8-5.4l5.3,0.8l-0.6-1l-4.7-0.6l-0.6-1l6.8-4.4l-0.5-0.8l-10.9,7.1L381.1,321.8z M377.7,316.5l4.2-2.8
			c1.3-0.8,2.6-0.7,3.3,0.4c0.2,0.3,0.4,0.8,0.4,1.1l0.9-0.3c0-0.4-0.2-0.8-0.5-1.2c-0.6-0.9-1.4-1.3-2.4-1.2l1-0.6l-0.5-0.8
			l-7.1,4.6L377.7,316.5z M374.3,309.8c-0.9-1.4-0.4-3.1,1.3-4.2c1.7-1.1,3.5-0.9,4.4,0.5s0.4,3.1-1.4,4.2
			C377,311.4,375.2,311.2,374.3,309.8 M373.4,310.2c0.7,1.1,1.8,1.6,2.9,1.6l-1.3,0.8l0.5,0.8l7.1-4.6l-0.5-0.8l-1.2,0.8
			c0.5-1,0.5-2.2-0.3-3.3c-1.1-1.8-3.5-2.1-5.6-0.7C372.9,306.2,372.3,308.4,373.4,310.2 M364.7,296.4l9.4-6.1l-5.1,8.2l0.6,0.9
			l9.6-1.3l-9.4,6.1l0.6,0.9l10.6-6.9l-0.8-1.2l-9.8,1.3l5.2-8.4l-0.8-1.2l-10.6,6.9L364.7,296.4z"/>
	</g>
	<g>
		<defs>
			<rect id="SVGID_00000026883087798772065840000006917164519043092130_" width="842" height="550"/>
		</defs>
		<clipPath id="SVGID_00000140722686536755501310000012794726674852334733_">
			<use xlink:href="#SVGID_00000026883087798772065840000006917164519043092130_"  style="overflow:visible;"/>
		</clipPath>
		<path style="clip-path:url(#SVGID_00000140722686536755501310000012794726674852334733_);fill:#35587A;" d="M207.7,479.7l7.2-2.5
			l1,3l0.8-0.3l-1-3l1.5-0.5c1.2-0.4,2.1-0.2,2.5,0.9c0.2,0.6,0.2,1.2,0.1,1.6l0.9,0.1c0.1-0.6,0.1-1.3-0.1-2.1
			c-0.6-1.7-1.9-2-3.6-1.4l-1.5,0.5l-0.6-1.7l-0.8,0.3l0.6,1.7l-7.2,2.5L207.7,479.7z M205.9,472.1c-0.5-1.6,0.4-3.1,2.3-3.8
			c2-0.7,3.6,0,4.2,1.6c0.5,1.6-0.3,3.1-2.3,3.8C208.1,474.3,206.5,473.6,205.9,472.1 M205.1,472.4c0.7,2.1,2.9,3.1,5.4,2.2
			c2.4-0.8,3.6-2.9,2.9-5.1c-0.7-2.1-2.9-3-5.4-2.2C205.5,468.2,204.3,470.3,205.1,472.4 M201.4,461.3l4.9-1.7
			c1.4-0.5,2.7,0.2,3.1,1.5c0.5,1.4-0.1,2.5-1.5,3l-5,1.7l0.3,0.9l5.2-1.8c1.8-0.6,2.5-2.2,1.9-3.9c-0.3-1-1.1-1.8-2.1-2.1l5.4-1.9
			l-0.3-0.9l-12.3,4.2L201.4,461.3z M198.3,452.5l4.9-1.7c1.4-0.5,2.7,0.2,3.1,1.5c0.5,1.4-0.1,2.5-1.5,3l-5,1.7l0.3,0.9l5.2-1.8
			c1.8-0.6,2.5-2.2,1.9-3.9c-0.3-1-1.1-1.8-2.1-2.1l5.4-1.9l-0.3-0.9l-12.3,4.2L198.3,452.5z M195.9,445.9c0.6,1.8,2.2,2.8,4.2,2.1
			l5-1.7l-0.3-0.9l-4.9,1.7c-1.5,0.5-2.6-0.1-3.1-1.4s0-2.5,1.5-3l4.9-1.7l-0.3-0.9l-5,1.7C195.9,442.4,195.3,444.1,195.9,445.9
			 M192.3,434.8l4.9-1.7c1.4-0.5,2.7,0.2,3.1,1.5c0.5,1.4-0.1,2.5-1.5,3l-5,1.7l0.3,0.9l5.2-1.8c1.8-0.6,2.5-2.2,1.9-3.9
			c-0.3-1-1.1-1.8-2.1-2.1l5.4-1.9l-0.3-0.9l-12.3,4.2L192.3,434.8z M190.3,429.5c0.4,1.1,1.1,1.8,2.1,2.2l0.4-0.8
			c-0.8-0.3-1.4-0.9-1.6-1.7c-0.5-1.5,0.4-3.1,2.3-3.8c2-0.7,3.6,0,4.1,1.5c0.3,0.8,0.2,1.6-0.3,2.3l0.8,0.4c0.6-0.9,0.7-2,0.3-3
			c-0.7-2.1-2.9-3-5.4-2.2C190.7,425.3,189.6,427.3,190.3,429.5 M187,420c0.8,2.3,2.6,3.7,4.8,3c1.8-0.6,2.3-2.2,2-4.2l-0.2-1.2
			c-0.3-1.9,0.2-2.9,1.4-3.3c1.4-0.5,2.7,0.4,3.3,2.1c0.5,1.4,0.3,2.6-0.2,3.6l0.9,0.4c0.6-1.2,0.8-2.6,0.3-4.3
			c-0.8-2.2-2.5-3.4-4.6-2.7c-1.7,0.6-2.4,2-2,4.2l0.2,1.3c0.3,1.8-0.1,2.9-1.4,3.3c-1.5,0.5-2.8-0.5-3.4-2.3
			c-0.5-1.5-0.3-3,0.3-3.9l-0.9-0.4C186.7,416.6,186.5,418.3,187,420"/>
	</g>
	<g>
		<defs>
			<rect id="SVGID_00000011004376081850394780000008482629794768595112_" width="842" height="550"/>
		</defs>
		<clipPath id="SVGID_00000152226648796342777220000013496237892347848894_">
			<use xlink:href="#SVGID_00000011004376081850394780000008482629794768595112_"  style="overflow:visible;"/>
		</clipPath>
		<path style="clip-path:url(#SVGID_00000152226648796342777220000013496237892347848894_);fill:#35587A;" d="M117.6,327.5
			c-0.8-1.6-0.5-3.2,0.7-3.9c1.2-0.7,2.7-0.3,3.7,1.2L117.6,327.5z M122.5,330.2c0.9-0.6,1.7-1.4,1.9-2.7l-0.8-0.3
			c-0.2,0.9-0.6,1.7-1.5,2.2c-1.4,0.8-2.9,0.5-4.1-1.2l5.3-3.2c0-0.1-0.1-0.2-0.2-0.3c-1.4-2.3-3.5-2.9-5.3-1.9
			c-1.8,1.1-2.3,3.4-0.9,5.7C118.4,330.7,120.6,331.3,122.5,330.2 M115.1,334.7c1.6-1,2.1-2.8,0.9-4.7c-0.9-1.4-2.4-2-3.6-1.6
			c0.7-0.8,0.8-2.2,0-3.6c-1.1-1.7-3-2.1-4.8-1c-2,1.2-2.2,3.1-1.1,4.9l4.9,8.1l0.8-0.5l-4.9-8c-0.9-1.5-0.6-2.9,0.7-3.7
			c1.3-0.8,2.7-0.6,3.5,0.9c0.9,1.5,0.4,2.7-0.8,3.4l-0.4,0.2l0.5,0.8l0.5-0.3c1.3-0.8,2.7-0.5,3.6,0.9c0.9,1.5,0.5,2.8-0.6,3.5
			c-0.6,0.3-1.1,0.5-1.5,0.5l0.2,0.8C113.8,335.3,114.4,335.1,115.1,334.7 M105.6,339.4c-1.4,0.9-3.1,0.3-4.2-1.5s-0.8-3.5,0.6-4.4
			s3.1-0.3,4.2,1.5C107.3,336.8,107.1,338.5,105.6,339.4 M106,340.3c1.1-0.7,1.7-1.8,1.7-2.9l0.8,1.3l0.8-0.5l-4.4-7.2l-0.8,0.5
			l0.8,1.2c-1-0.5-2.2-0.5-3.3,0.2c-1.8,1.1-2.2,3.4-0.8,5.6C102,340.7,104.2,341.4,106,340.3 M99,344.4l-2.6-4.3
			c-0.8-1.3-0.6-2.6,0.5-3.3c0.4-0.2,0.8-0.4,1.2-0.4l-0.3-0.9c-0.4,0-0.8,0.2-1.3,0.4c-0.9,0.5-1.3,1.4-1.3,2.3l-0.6-1l-0.8,0.5
			l4.4,7.2L99,344.4z M95,347c0.8-0.5,1.2-1.1,1.4-1.8l-0.8-0.4c-0.2,0.5-0.5,1-1.1,1.3c-0.9,0.5-1.7,0.4-2.4-0.7l-2.6-4.2l2.9-1.8
			l-0.5-0.8l-2.9,1.8l-1.4-2.2l-0.8,0.5l1.4,2.2l-1.5,0.9l0.5,0.8l1.5-0.9l2.6,4.3C92.4,347.6,93.6,347.8,95,347 M87.7,351.5
			c1.6-1,2.3-2.5,1.4-3.8c-0.7-1.1-1.8-1.3-3.2-0.7l-0.9,0.3c-1.1,0.4-1.8,0.3-2.2-0.3c-0.5-0.8-0.1-1.7,0.9-2.3
			c0.8-0.5,1.8-0.7,2.4-0.6v-0.9c-0.9-0.1-1.9,0.1-2.9,0.7c-1.5,0.9-2,2.3-1.3,3.6c0.6,1,1.6,1.3,3.2,0.7l0.9-0.3
			c1.1-0.4,1.8-0.3,2.2,0.3c0.5,0.9,0,1.8-1.1,2.5c-1,0.6-1.9,0.7-2.6,0.6v0.9C85.6,352.4,86.7,352.1,87.7,351.5 M82.4,354.7
			c0.8-0.5,1.2-1.1,1.4-1.8l-0.8-0.4c-0.2,0.5-0.5,1-1.1,1.3c-0.9,0.5-1.7,0.4-2.4-0.7l-2.6-4.2l2.9-1.8l-0.5-0.8l-2.9,1.8l-1.4-2.2
			l-0.8,0.5l1.4,2.2l-1.5,0.9l0.5,0.8l1.5-0.9l2.6,4.3C79.8,355.3,81.1,355.5,82.4,354.7 M73.4,360.1l-2.1-3.4l1-0.6l4.8,1.8l1-0.6
			l-5.4-1.9l0.9-5.3l-1,0.6l-0.8,4.7l-1,0.6l-4.2-6.9l-0.8,0.5l6.8,11.1L73.4,360.1z M68,363.4l-2.6-4.3c-0.8-1.3-0.6-2.6,0.5-3.3
			c0.4-0.2,0.8-0.4,1.2-0.4l-0.3-0.9c-0.4,0-0.8,0.2-1.3,0.4c-0.9,0.5-1.3,1.4-1.3,2.3l-0.6-1l-0.8,0.5l4.4,7.2L68,363.4z
			 M61.2,366.6c-1.4,0.9-3.1,0.3-4.2-1.5c-1.1-1.8-0.8-3.5,0.6-4.4c1.4-0.9,3.1-0.3,4.2,1.5S62.6,365.8,61.2,366.6 M61.5,367.5
			c1.1-0.7,1.6-1.8,1.7-2.9l0.8,1.3l0.8-0.5l-4.4-7.2l-0.8,0.5l0.8,1.2c-1-0.5-2.2-0.5-3.3,0.2c-1.8,1.1-2.2,3.4-0.8,5.6
			C57.5,367.9,59.7,368.6,61.5,367.5 M47.6,375.9l-5.8-9.5l8.1,5.3l0.9-0.5l-1.1-9.7l5.9,9.6l0.9-0.5l-6.6-10.8l-1.3,0.8l1.1,9.8
			l-8.2-5.4l-1.3,0.8l6.6,10.8L47.6,375.9z"/>
	</g>
	<g>
		<defs>
			<rect id="SVGID_00000108987290605534736480000005995004470993616535_" width="842" height="550"/>
		</defs>
		<clipPath id="SVGID_00000173159647315430714320000015927637793685589148_">
			<use xlink:href="#SVGID_00000108987290605534736480000005995004470993616535_"  style="overflow:visible;"/>
		</clipPath>
		<path style="clip-path:url(#SVGID_00000173159647315430714320000015927637793685589148_);fill:#35587A;" d="M285,221.5
			c-0.9-1.6-0.6-3.1,0.6-4c1.2-0.8,2.7-0.3,3.7,1.1L285,221.5z M290,224c0.9-0.6,1.6-1.4,1.9-2.8l-0.8-0.2c-0.2,0.9-0.6,1.7-1.5,2.3
			c-1.3,0.9-2.9,0.6-4.1-1.1l5.2-3.4c-0.1-0.1-0.1-0.2-0.2-0.3c-1.4-2.2-3.6-2.8-5.3-1.7c-1.8,1.2-2.2,3.5-0.7,5.7
			C285.9,224.7,288.1,225.2,290,224 M282.8,228.7c1.5-1,2-2.9,0.8-4.8c-0.9-1.4-2.4-1.9-3.6-1.5c0.7-0.9,0.8-2.2-0.1-3.6
			c-1.1-1.7-3.1-2-4.8-0.9c-1.9,1.3-2.1,3.2-1,5l5.1,7.9l0.8-0.5l-5.1-7.9c-0.9-1.4-0.6-2.9,0.6-3.7s2.6-0.6,3.6,0.8
			c1,1.5,0.5,2.7-0.7,3.5l-0.4,0.2l0.5,0.7l0.5-0.3c1.3-0.8,2.7-0.6,3.6,0.8c1,1.5,0.6,2.8-0.5,3.6c-0.6,0.4-1.1,0.5-1.5,0.5
			l0.2,0.8C281.5,229.4,282.1,229.2,282.8,228.7 M273.4,233.7c-1.4,0.9-3.1,0.4-4.2-1.3s-0.9-3.5,0.5-4.4s3.1-0.4,4.2,1.4
			C275,231,274.8,232.8,273.4,233.7 M273.8,234.6c1.1-0.7,1.6-1.8,1.6-2.9l0.8,1.3l0.8-0.5l-4.6-7.1l-0.8,0.5l0.8,1.2
			c-1-0.5-2.2-0.5-3.3,0.3c-1.8,1.1-2.1,3.5-0.7,5.6C269.8,235.1,272,235.7,273.8,234.6 M266.9,238.9l-2.8-4.2
			c-0.8-1.3-0.7-2.6,0.4-3.3c0.3-0.2,0.8-0.4,1.1-0.4l-0.3-0.9c-0.4,0-0.8,0.2-1.2,0.5c-0.9,0.6-1.3,1.4-1.2,2.4l-0.6-1l-0.8,0.5
			l4.6,7.1L266.9,238.9z M262.9,241.6c0.7-0.5,1.2-1.1,1.4-1.8l-0.8-0.4c-0.2,0.5-0.5,1-1,1.3c-0.8,0.5-1.7,0.4-2.4-0.6l-2.7-4.1
			l2.8-1.8l-0.5-0.8l-2.8,1.8l-1.4-2.2l-0.8,0.5l1.4,2.2l-1.4,0.9l0.5,0.8l1.4-0.9l2.7,4.2C260.3,242.2,261.6,242.5,262.9,241.6
			 M255.8,246.2c1.6-1,2.2-2.5,1.3-3.8c-0.7-1-1.8-1.2-3.2-0.6l-0.9,0.4c-1.1,0.5-1.8,0.4-2.2-0.3c-0.5-0.8-0.1-1.7,0.8-2.3
			c0.8-0.5,1.8-0.7,2.4-0.6v-0.9c-0.9-0.1-1.9,0.2-2.9,0.8c-1.5,0.9-2,2.4-1.2,3.6c0.6,1,1.7,1.3,3.2,0.6l0.9-0.4
			c1.1-0.5,1.8-0.4,2.3,0.3c0.5,0.8,0.1,1.8-1,2.5c-1,0.6-1.9,0.8-2.6,0.6v0.9C253.7,247.2,254.8,246.9,255.8,246.2 M250.6,249.6
			c0.7-0.5,1.2-1.1,1.4-1.8l-0.8-0.4c-0.2,0.5-0.5,1-1,1.3c-0.8,0.5-1.7,0.4-2.4-0.6l-2.7-4.1l2.8-1.8l-0.5-0.8l-2.8,1.8l-1.4-2.2
			l-0.8,0.5l1.4,2.2l-1.4,0.9l0.5,0.8l1.4-0.9l2.7,4.2C248,250.2,249.3,250.5,250.6,249.6 M241.7,255.3l-2.2-3.3l1-0.6l4.8,1.6
			l1-0.7l-5.4-1.8l0.8-5.3l-1,0.6l-0.6,4.7l-1,0.6l-4.4-6.8l-0.8,0.5l7.1,10.9L241.7,255.3z M236.4,258.7l-2.8-4.2
			c-0.8-1.3-0.7-2.6,0.4-3.3c0.3-0.2,0.8-0.4,1.1-0.4l-0.3-0.9c-0.4,0-0.8,0.2-1.2,0.5c-0.9,0.6-1.3,1.4-1.2,2.4l-0.6-1l-0.8,0.5
			l4.6,7.1L236.4,258.7z M229.7,262.1c-1.4,0.9-3.1,0.4-4.2-1.3c-1.1-1.7-0.9-3.5,0.5-4.4s3.1-0.4,4.2,1.4
			C231.3,259.4,231.1,261.2,229.7,262.1 M230,263c1.1-0.7,1.6-1.8,1.6-2.9l0.8,1.3l0.8-0.5l-4.6-7.1l-0.8,0.5l0.8,1.2
			c-1-0.5-2.2-0.5-3.3,0.3c-1.8,1.1-2.1,3.5-0.7,5.6C226,263.5,228.3,264.1,230,263 M216.3,271.7l-6.1-9.4l8.2,5.1l0.9-0.6l-1.3-9.6
			l6.1,9.4l0.9-0.6l-6.9-10.6l-1.2,0.8l1.3,9.8l-8.4-5.2l-1.2,0.8l6.9,10.6L216.3,271.7z"/>
	</g>
	<g>
		<defs>
			<rect id="SVGID_00000041989550081433966620000000949346989179801011_" width="842" height="550"/>
		</defs>
		<clipPath id="SVGID_00000056397474395522406550000017217772048331016576_">
			<use xlink:href="#SVGID_00000041989550081433966620000000949346989179801011_"  style="overflow:visible;"/>
		</clipPath>
		<path style="clip-path:url(#SVGID_00000056397474395522406550000017217772048331016576_);fill:#35587A;" d="M465.4,45.2l-3.2-4.1
			c-0.9-1.2-0.7-2.6,0.4-3.4c1.2-0.9,2.4-0.7,3.3,0.5l3.2,4.1l0.8-0.6l-3.4-4.4c-1.2-1.5-2.9-1.7-4.3-0.5c-0.9,0.7-1.4,1.7-1.3,2.8
			l-0.8-1l-0.8,0.6l5.2,6.7L465.4,45.2z M455.1,47.2c-1-1.5-0.9-3.1,0.3-4c1.1-0.9,2.6-0.6,3.8,0.8L455.1,47.2z M460.3,49.3
			c0.9-0.7,1.5-1.6,1.6-2.9l-0.8-0.2c-0.1,0.9-0.4,1.7-1.3,2.4c-1.2,1-2.8,0.8-4.2-0.7l4.9-3.8c-0.1-0.1-0.1-0.2-0.2-0.3
			c-1.6-2.1-3.8-2.5-5.4-1.3c-1.7,1.3-1.9,3.6-0.2,5.7C456.3,50.3,458.5,50.7,460.3,49.3 M453.7,54.3l-3.1-4
			c-0.9-1.2-0.9-2.5,0.1-3.3c0.3-0.3,0.7-0.5,1.1-0.5l-0.4-0.9c-0.4,0.1-0.8,0.3-1.2,0.6c-0.8,0.6-1.2,1.5-1,2.5l-0.7-0.9l-0.8,0.6
			l5.2,6.7L453.7,54.3z M448.7,58.2l-3.1-4c-0.9-1.2-0.9-2.5,0.1-3.3c0.3-0.3,0.7-0.5,1.1-0.5l-0.4-0.9c-0.4,0.1-0.8,0.3-1.2,0.6
			c-0.8,0.6-1.2,1.5-1,2.5l-0.7-0.9l-0.8,0.6l5.2,6.7L448.7,58.2z M442.4,62.2c-1.3,1-3.1,0.6-4.3-1c-1.3-1.6-1.2-3.4,0.1-4.4
			c1.3-1,3-0.7,4.3,1C443.7,59.4,443.7,61.1,442.4,62.2 M442.8,63c1.1-0.8,1.4-1.9,1.3-3.1l0.9,1.2l0.8-0.6l-5.2-6.7l-0.8,0.6
			l0.9,1.2c-1.1-0.4-2.2-0.3-3.3,0.5c-1.7,1.3-1.8,3.6-0.2,5.7C438.9,63.8,441.2,64.3,442.8,63 M433.7,70l-3.2-4.1
			c-0.9-1.2-0.7-2.6,0.4-3.4c1.2-0.9,2.4-0.7,3.3,0.5l3.2,4.1l0.8-0.6l-3.4-4.4c-1.2-1.5-2.9-1.7-4.3-0.5c-0.8,0.7-1.4,1.6-1.3,2.7
			l-3.5-4.5l-0.8,0.6l8,10.2L433.7,70z M429.3,73.6c0.9-0.7,1.4-1.7,1.4-2.7l-0.9-0.1c0,0.8-0.4,1.6-1.1,2.1c-1.3,1-3,0.7-4.3-1
			s-1.2-3.4,0.1-4.4c0.7-0.5,1.5-0.7,2.3-0.5l0.1-0.9c-1-0.3-2.1,0-3,0.7c-1.8,1.4-1.9,3.7-0.3,5.8C425.2,74.5,427.5,75,429.3,73.6
			 M422.6,78.8c1.5-1.2,2-2.7,1-3.9c-0.8-1-1.9-1.1-3.3-0.3l-0.8,0.4c-1.1,0.6-1.8,0.5-2.3-0.1c-0.6-0.7-0.3-1.7,0.6-2.4
			c0.8-0.6,1.7-0.9,2.4-0.9l-0.1-0.9c-0.9,0-1.9,0.3-2.8,1c-1.4,1.1-1.8,2.5-0.8,3.7c0.7,0.9,1.8,1.2,3.3,0.4l0.8-0.4
			c1.1-0.6,1.8-0.5,2.3,0.1c0.6,0.8,0.2,1.8-0.8,2.6c-0.9,0.7-1.8,0.9-2.6,0.9l0.1,0.9C420.6,79.9,421.7,79.5,422.6,78.8
			 M414.1,85.3l-3.2-4.1c-0.9-1.2-0.7-2.6,0.4-3.4c1.2-0.9,2.4-0.7,3.3,0.5l3.2,4.1l0.8-0.6l-3.4-4.4c-1.2-1.5-2.9-1.7-4.3-0.5
			c-0.8,0.7-1.4,1.6-1.3,2.7l-3.5-4.5l-0.8,0.6l8,10.2L414.1,85.3z M409.6,88.9c0.9-0.7,1.4-1.7,1.4-2.7l-0.9-0.1
			c0,0.8-0.4,1.6-1.1,2.1c-1.3,1-3,0.7-4.3-1s-1.2-3.4,0.1-4.4c0.7-0.5,1.5-0.7,2.3-0.5l0.1-0.9c-1-0.3-2.1,0-3,0.7
			c-1.8,1.4-1.9,3.7-0.3,5.8C405.5,89.9,407.8,90.3,409.6,88.9 M402.9,94.1c1.5-1.2,2-2.7,1-3.9c-0.8-1-1.9-1.1-3.3-0.3l-0.8,0.4
			c-1.1,0.6-1.8,0.5-2.3-0.1c-0.6-0.7-0.3-1.7,0.6-2.4c0.8-0.6,1.7-0.9,2.4-0.9l-0.1-0.8c-0.9,0-1.9,0.3-2.8,1
			c-1.4,1.1-1.8,2.5-0.9,3.7c0.7,0.9,1.8,1.2,3.3,0.4l0.8-0.4c1.1-0.6,1.8-0.5,2.3,0.1c0.6,0.8,0.2,1.8-0.8,2.6
			c-0.9,0.7-1.8,0.9-2.6,0.9l0.1,0.9C400.9,95.3,402,94.9,402.9,94.1 M398.8,97.2l-5.2-6.7l-0.8,0.6l5.2,6.7L398.8,97.2z
			 M391.8,88.9c0.3-0.2,0.3-0.6,0.1-0.9c-0.2-0.3-0.6-0.4-0.9-0.1c-0.3,0.2-0.3,0.6-0.1,0.9C391.1,89.1,391.5,89.2,391.8,88.9
			 M388.6,99.2c-1-1.5-0.9-3.1,0.3-4c1.1-0.9,2.6-0.6,3.8,0.8L388.6,99.2z M393.7,101.3c0.9-0.7,1.5-1.6,1.6-2.9l-0.8-0.2
			c-0.1,0.9-0.4,1.7-1.3,2.4c-1.2,1-2.8,0.8-4.2-0.7l4.9-3.8c-0.1-0.1-0.1-0.2-0.2-0.3c-1.6-2.1-3.8-2.5-5.4-1.3
			c-1.7,1.3-1.9,3.6-0.2,5.7C389.7,102.3,392,102.7,393.7,101.3 M389,104.9l-8-10.2l-0.8,0.6l8,10.2L389,104.9z M381.4,110.8
			l-3.6-4.6l4.8-3.8l-0.6-0.8l-4.8,3.8l-3-3.8l5-3.9l-0.6-0.8l-5.8,4.6l7.8,9.9L381.4,110.8z"/>
	</g>
	<g>
		<defs>
			<rect id="SVGID_00000111175517290333902070000007392378439643104929_" width="842" height="550"/>
		</defs>
		<clipPath id="SVGID_00000103230131384850999430000016062429820131845016_">
			<use xlink:href="#SVGID_00000111175517290333902070000007392378439643104929_"  style="overflow:visible;"/>
		</clipPath>
		<path style="clip-path:url(#SVGID_00000103230131384850999430000016062429820131845016_);fill:#35587A;" d="M180.6,163.6
			c1.7-0.7,3.2-0.3,3.9,1s0.1,2.7-1.4,3.6L180.6,163.6z M177.6,168.3c0.5,1,1.3,1.8,2.6,2.1l0.3-0.8c-0.9-0.2-1.6-0.7-2.1-1.7
			c-0.7-1.4-0.3-2.9,1.4-4l2.9,5.5c0.1,0,0.2-0.1,0.3-0.2c2.3-1.2,3.1-3.3,2.2-5.1c-1-1.9-3.3-2.5-5.6-1.2
			C177.3,164.2,176.5,166.3,177.6,168.3 M173.5,160.7c0.9,1.6,2.7,2.3,4.7,1.2c1.4-0.8,2.1-2.2,1.8-3.5c0.8,0.8,2.1,1,3.6,0.2
			c1.8-1,2.3-2.9,1.3-4.7c-1.1-2-3-2.4-4.9-1.4l-8.3,4.4l0.5,0.9l8.3-4.4c1.5-0.8,2.9-0.4,3.6,1c0.7,1.3,0.4,2.7-1.1,3.5
			c-1.6,0.8-2.8,0.2-3.4-1l-0.2-0.4l-0.8,0.4l0.3,0.6c0.7,1.4,0.4,2.8-1.1,3.6s-2.9,0.4-3.5-0.9c-0.3-0.6-0.4-1.1-0.4-1.5l-0.9,0.2
			C173,159.4,173.2,160,173.5,160.7 M169.4,151c-0.8-1.5-0.1-3.1,1.7-4.1s3.6-0.6,4.3,0.9c0.8,1.5,0.1,3.1-1.7,4.1
			C171.9,152.8,170.2,152.4,169.4,151 M168.5,151.2c0.6,1.2,1.6,1.8,2.8,1.8l-1.3,0.7l0.5,0.9l7.5-4l-0.5-0.9l-1.3,0.7
			c0.6-1,0.7-2.2,0-3.3c-1-1.9-3.3-2.4-5.6-1.2C168.4,147.2,167.5,149.4,168.5,151.2 M164.8,144l4.5-2.4c1.3-0.7,2.7-0.5,3.3,0.7
			c0.2,0.4,0.3,0.8,0.3,1.2l1-0.2c0-0.4-0.1-0.8-0.4-1.3c-0.5-0.9-1.3-1.4-2.2-1.4l1-0.6l-0.4-0.8l-7.5,4L164.8,144z M162.4,139.8
			c0.4,0.8,1,1.3,1.7,1.6l0.5-0.7c-0.5-0.2-1-0.6-1.2-1.1c-0.5-0.9-0.3-1.7,0.8-2.3l4.4-2.3l1.6,3l0.8-0.4l-1.6-3l2.3-1.2l-0.5-0.9
			l-2.3,1.2l-0.8-1.5l-0.8,0.4l0.8,1.5l-4.4,2.3C162,137.2,161.7,138.4,162.4,139.8 M158.4,132.3c0.9,1.7,2.3,2.4,3.7,1.7
			c1.1-0.6,1.4-1.7,0.9-3.2l-0.3-0.9c-0.4-1.2-0.2-1.8,0.5-2.2c0.8-0.4,1.7,0,2.2,1c0.5,0.9,0.6,1.8,0.4,2.5l0.9,0.1
			c0.2-0.9,0-1.9-0.5-3c-0.8-1.5-2.2-2.2-3.5-1.5c-1,0.5-1.4,1.5-0.9,3.2l0.3,0.9c0.4,1.2,0.2,1.9-0.5,2.2c-0.9,0.5-1.8-0.1-2.4-1.2
			c-0.6-1-0.6-1.9-0.4-2.7l-0.9-0.1C157.7,130.1,157.9,131.2,158.4,132.3 M153.5,122.8l4.6-2.4c1.3-0.7,2.7-0.2,3.3,1
			c0.7,1.3,0.3,2.5-1,3.2l-4.6,2.5l0.5,0.9l4.9-2.6c1.7-0.9,2.1-2.5,1.3-4.1c-0.5-1-1.4-1.7-2.5-1.7l1.1-0.6l-0.4-0.8l-7.5,4
			L153.5,122.8z M153.3,112.3c1.7-0.7,3.2-0.3,3.9,1s0.1,2.7-1.4,3.6L153.3,112.3z M150.3,117c0.5,1,1.3,1.8,2.6,2.1l0.3-0.8
			c-0.9-0.2-1.6-0.7-2.1-1.7c-0.7-1.4-0.3-2.9,1.4-4l2.9,5.5c0.1,0,0.2-0.1,0.3-0.2c2.3-1.2,3.1-3.3,2.2-5.1c-1-1.9-3.3-2.5-5.6-1.2
			C150,112.9,149.2,115,150.3,117 M145.6,108l3.5-1.9l0.6,1l-2,4.7l0.6,1.1l2.3-5.3l5.2,1.2l-0.6-1l-4.6-1l-0.6-1l7.1-3.8l-0.5-0.9
			l-11.4,6.1L145.6,108z M143.1,101.4c-0.8-1.5-0.1-3.1,1.7-4.1s3.6-0.6,4.4,0.9c0.8,1.5,0.1,3.2-1.7,4.1
			C145.6,103.3,143.9,102.9,143.1,101.4 M142.3,101.9c1.1,2,3.4,2.6,5.7,1.3c2.3-1.2,3.1-3.5,2-5.4c-1-2-3.3-2.6-5.6-1.3
			C142,97.7,141.2,99.9,142.3,101.9 M135.7,89.4l5.2-2.8l3.2,6.1l-5.2,2.8l0.5,0.9l11.1-5.9l-0.5-0.9l-5.1,2.7l-3.2-6.1l5.1-2.7
			l-0.5-0.9l-11.1,5.9L135.7,89.4z"/>
	</g>
	<g>
		<defs>
			<rect id="SVGID_00000109727032860886263430000015168771458881510032_" width="842" height="550"/>
		</defs>
		<clipPath id="SVGID_00000093856378873656546690000001529258130574675624_">
			<use xlink:href="#SVGID_00000109727032860886263430000015168771458881510032_"  style="overflow:visible;"/>
		</clipPath>
		<path style="clip-path:url(#SVGID_00000093856378873656546690000001529258130574675624_);fill:#35587A;" d="M69.7,242l6.7-3.6
			l1.5,2.8l0.8-0.4l-1.5-2.8l1.4-0.8c1.1-0.6,2-0.6,2.6,0.5c0.3,0.5,0.4,1.1,0.4,1.6l0.9-0.1c0-0.6-0.1-1.3-0.5-2.1
			c-0.8-1.5-2.2-1.7-3.8-0.8l-1.4,0.8l-0.9-1.6l-0.8,0.4l0.9,1.6l-6.7,3.6L69.7,242z M66.7,234.8c-0.8-1.4-0.2-3.1,1.7-4.1
			c1.8-1,3.6-0.6,4.4,0.9c0.8,1.4,0.2,3.2-1.7,4.1C69.2,236.7,67.4,236.2,66.7,234.8 M65.8,235.2c1.1,2,3.4,2.5,5.7,1.3
			c2.3-1.2,3.1-3.5,2-5.5s-3.4-2.5-5.7-1.3C65.6,231,64.8,233.3,65.8,235.2 M60.4,224.9l4.6-2.5c1.3-0.7,2.7-0.3,3.3,0.9
			c0.7,1.3,0.3,2.5-1,3.2l-4.6,2.5l0.5,0.9l4.9-2.6c1.7-0.9,2.1-2.5,1.2-4.2c-0.5-0.9-1.4-1.6-2.4-1.7l5-2.7l-0.5-0.9L60,224
			L60.4,224.9z M55.9,216.7l4.6-2.5c1.3-0.7,2.7-0.3,3.3,0.9c0.7,1.3,0.3,2.5-1,3.2l-4.6,2.5l0.5,0.9l4.9-2.6
			c1.7-0.9,2.1-2.5,1.2-4.2c-0.5-0.9-1.4-1.6-2.4-1.7l5-2.7l-0.5-0.9l-11.4,6.2L55.9,216.7z M52.5,210.6c0.9,1.7,2.6,2.4,4.5,1.4
			l4.6-2.5l-0.5-0.9l-4.6,2.5c-1.4,0.8-2.6,0.3-3.3-0.9s-0.4-2.5,1-3.3l4.6-2.5l-0.5-0.9l-4.6,2.5C51.9,207.1,51.6,209,52.5,210.6
			 M47,200.3l4.6-2.5c1.3-0.7,2.7-0.3,3.3,0.9c0.7,1.3,0.3,2.5-1,3.2l-4.6,2.5l0.5,0.9l4.9-2.6c1.7-0.9,2.1-2.5,1.2-4.2
			c-0.5-0.9-1.4-1.6-2.5-1.7l5-2.7l-0.5-0.9l-11.4,6.2L47,200.3z M44.2,195.3c0.5,1,1.4,1.6,2.5,1.8l0.2-0.9
			c-0.8-0.2-1.5-0.6-1.9-1.4c-0.8-1.4-0.2-3.1,1.7-4.1c1.8-1,3.6-0.6,4.3,0.8c0.4,0.8,0.4,1.6,0.1,2.3l0.8,0.3
			c0.4-1,0.4-2.1-0.2-3.1c-1.1-2-3.3-2.5-5.6-1.3C43.9,191.2,43.1,193.4,44.2,195.3 M39.4,186.6c1.2,2.2,3.1,3.3,5.2,2.1
			c1.7-0.9,2-2.6,1.3-4.5l-0.4-1.2c-0.6-1.8-0.3-2.9,0.8-3.5c1.3-0.7,2.7,0,3.6,1.5c0.7,1.3,0.7,2.5,0.4,3.6l0.9,0.2
			c0.4-1.3,0.4-2.7-0.5-4.3c-1.1-2-3.1-3-5-2c-1.6,0.9-2,2.4-1.3,4.4l0.4,1.2c0.6,1.7,0.4,2.9-0.8,3.5c-1.4,0.8-2.8-0.1-3.7-1.7
			c-0.7-1.4-0.8-2.9-0.4-3.9l-0.9-0.3C38.5,183.3,38.6,185,39.4,186.6"/>
	</g>
</g>
</svg>
