<?xml version="1.0" encoding="utf-8"?>
<!-- Generator: Adobe Illustrator 26.3.1, SVG Export Plug-In . SVG Version: 6.00 Build 0)  -->
<svg version="1.1" id="Ebene_1" xmlns="http://www.w3.org/2000/svg" xmlns:xlink="http://www.w3.org/1999/xlink" x="0px" y="0px"
	 viewBox="0 0 320 320" style="enable-background:new 0 0 320 320;" xml:space="preserve">
<style type="text/css">
	.st0{fill:none;}
	.st1{fill:#FFFFFF;}
	.st2{clip-path:url(#SVGID_00000039122642952983222700000001519733021768072833_);fill:none;stroke:#F4F6F8;stroke-width:11.25;}
	.st3{clip-path:url(#SVGID_00000113335567275199407270000001773425649836433840_);fill:none;stroke:#FFFFFF;stroke-width:11.25;}
	.st4{fill:none;stroke:#FFFFFF;stroke-width:11.25;}
	.st5{clip-path:url(#SVGID_00000019658014308144606010000009695642611612274621_);fill:none;stroke:#FFFFFF;stroke-width:5.25;}
	.st6{clip-path:url(#SVGID_00000019658014308144606010000009695642611612274621_);fill:#3E678E;}
	.st7{clip-path:url(#SVGID_00000019658014308144606010000009695642611612274621_);fill:#E7343F;}
	.st8{clip-path:url(#SVGID_00000034810891296480139090000007968875592093544868_);fill:#35587A;}
</style>
<rect x="0" y="0" class="st0" width="320" height="320"/>
<polygon class="st1" points="277.1,0 288.3,14.9 259.9,38.6 281.3,64.6 146.6,165.2 223.9,280 319.5,240.2 320,240.2 320,0 "/>
<g>
	<defs>
		<polygon id="SVGID_1_" points="277.1,0 288.3,14.9 259.9,38.6 281.3,64.6 146.6,165.2 223.9,280 319.5,240.2 320,240.2 320,0 		
			"/>
	</defs>
	<clipPath id="SVGID_00000115493495746170265630000016444735930103147174_">
		<use xlink:href="#SVGID_1_"  style="overflow:visible;"/>
	</clipPath>
	
		<line style="clip-path:url(#SVGID_00000115493495746170265630000016444735930103147174_);fill:none;stroke:#F4F6F8;stroke-width:11.25;" x1="2.4" y1="11.6" x2="568.7" y2="11.6"/>
	
		<line style="clip-path:url(#SVGID_00000115493495746170265630000016444735930103147174_);fill:none;stroke:#F4F6F8;stroke-width:11.25;" x1="2.4" y1="35" x2="568.7" y2="35"/>
	
		<line style="clip-path:url(#SVGID_00000115493495746170265630000016444735930103147174_);fill:none;stroke:#F4F6F8;stroke-width:11.25;" x1="2.4" y1="58.3" x2="568.7" y2="58.3"/>
	
		<line style="clip-path:url(#SVGID_00000115493495746170265630000016444735930103147174_);fill:none;stroke:#F4F6F8;stroke-width:11.25;" x1="2.4" y1="81.7" x2="568.7" y2="81.7"/>
	
		<line style="clip-path:url(#SVGID_00000115493495746170265630000016444735930103147174_);fill:none;stroke:#F4F6F8;stroke-width:11.25;" x1="2.4" y1="105" x2="568.7" y2="105"/>
	
		<line style="clip-path:url(#SVGID_00000115493495746170265630000016444735930103147174_);fill:none;stroke:#F4F6F8;stroke-width:11.25;" x1="2.4" y1="128.4" x2="568.7" y2="128.4"/>
	
		<line style="clip-path:url(#SVGID_00000115493495746170265630000016444735930103147174_);fill:none;stroke:#F4F6F8;stroke-width:11.25;" x1="2.4" y1="151.8" x2="568.7" y2="151.8"/>
	
		<line style="clip-path:url(#SVGID_00000115493495746170265630000016444735930103147174_);fill:none;stroke:#F4F6F8;stroke-width:11.25;" x1="2.4" y1="175.1" x2="568.7" y2="175.1"/>
	
		<line style="clip-path:url(#SVGID_00000115493495746170265630000016444735930103147174_);fill:none;stroke:#F4F6F8;stroke-width:11.25;" x1="2.4" y1="198.5" x2="568.7" y2="198.5"/>
	
		<line style="clip-path:url(#SVGID_00000115493495746170265630000016444735930103147174_);fill:none;stroke:#F4F6F8;stroke-width:11.25;" x1="2.4" y1="221.8" x2="568.7" y2="221.8"/>
	
		<line style="clip-path:url(#SVGID_00000115493495746170265630000016444735930103147174_);fill:none;stroke:#F4F6F8;stroke-width:11.25;" x1="2.4" y1="245.2" x2="568.7" y2="245.2"/>
	
		<line style="clip-path:url(#SVGID_00000115493495746170265630000016444735930103147174_);fill:none;stroke:#F4F6F8;stroke-width:11.25;" x1="2.4" y1="268.5" x2="568.7" y2="268.5"/>
</g>
<g>
	<defs>
		<rect id="SVGID_00000113338750885788800880000016924989236061450130_" x="0" y="0" width="320" height="320"/>
	</defs>
	<clipPath id="SVGID_00000160188806587327410520000012251958128186170503_">
		<use xlink:href="#SVGID_00000113338750885788800880000016924989236061450130_"  style="overflow:visible;"/>
	</clipPath>
	
		<path style="clip-path:url(#SVGID_00000160188806587327410520000012251958128186170503_);fill:none;stroke:#FFFFFF;stroke-width:11.25;" d="
		M-296.3,399c0,0,45.4-93.5,93.5-121.2S172.8,46.1,172.8,46.1l243.8-200.6"/>
	
		<polyline style="clip-path:url(#SVGID_00000160188806587327410520000012251958128186170503_);fill:none;stroke:#FFFFFF;stroke-width:11.25;" points="
		253.6,-159.4 298.3,-86.4 301.1,-60.9 426.5,235.3 319.5,241 221.7,280.7 48.8,408.9 -134.7,505.3 	"/>
	
		<polyline style="clip-path:url(#SVGID_00000160188806587327410520000012251958128186170503_);fill:none;stroke:#FFFFFF;stroke-width:11.25;" points="
		-131.2,10.7 -41.2,180 13.4,241.7 53.8,357.2 47.4,411.8 	"/>
</g>
<line class="st4" x1="221.7" y1="279.9" x2="101.3" y2="92.2"/>
<g>
	<defs>
		<rect id="SVGID_00000119078130843507227730000001969618325191417244_" x="0" y="0" width="320" height="320"/>
	</defs>
	<clipPath id="SVGID_00000133524709808810159000000013685391022368848300_">
		<use xlink:href="#SVGID_00000119078130843507227730000001969618325191417244_"  style="overflow:visible;"/>
	</clipPath>
	
		<line style="clip-path:url(#SVGID_00000133524709808810159000000013685391022368848300_);fill:none;stroke:#FFFFFF;stroke-width:5.25;" x1="320.9" y1="243.8" x2="432.9" y2="496.8"/>
	
		<polyline style="clip-path:url(#SVGID_00000133524709808810159000000013685391022368848300_);fill:none;stroke:#FFFFFF;stroke-width:5.25;" points="
		34.6,127.6 -45.4,-28.3 -56.8,-156.6 	"/>
	<g style="clip-path:url(#SVGID_00000133524709808810159000000013685391022368848300_);">
		<text transform="matrix(0.8526 -0.5225 0.5225 0.8526 -105.2335 246.4839)"><tspan x="0" y="0" style="fill:#35587A; font-family:'MarkOT-NarrowLight'; font-size:13.4999px;">Marktst</tspan><tspan x="45.5" y="0" style="fill:#35587A; font-family:'MarkOT-NarrowLight'; font-size:13.4999px;">r</tspan><tspan x="50" y="0" style="fill:#35587A; font-family:'MarkOT-NarrowLight'; font-size:13.4999px;">a</tspan><tspan x="57.3" y="0" style="fill:#35587A; font-family:'MarkOT-NarrowLight'; font-size:13.4999px;">ß</tspan><tspan x="64.4" y="0" style="fill:#35587A; font-family:'MarkOT-NarrowLight'; font-size:13.4999px;">e</tspan></text>
	</g>
	<path style="clip-path:url(#SVGID_00000133524709808810159000000013685391022368848300_);fill:#3E678E;" d="M127.6,42.6
		c-0.9,1.2-1.5,2.7-1.5,4.5c0,0.4,0,0.9,0.1,1.3c0.2,1.4,0.8,2.7,1.6,3.7c0,0,0,0,0,0c0,0,0,0.1,0,0.1c0,0.2-0.1,0.3-0.3,0.3
		c0,0-0.1,0-0.1,0c0,0-0.1,0-0.1-0.1c-2.6-1.4-4.3-4.2-4.3-7.3c0-3.1,3.1-6.5,5.7-9.2c0.2-0.2,0.3-0.3,0.4-0.5l2.2,2.4
		c-0.1,0.1-0.2,0.2-0.3,0.3C130.2,39.4,128.6,41.1,127.6,42.6"/>
	<path style="clip-path:url(#SVGID_00000133524709808810159000000013685391022368848300_);fill:#E7343F;" d="M139.9,45.2
		c0,3.1-1.7,5.9-4.3,7.3c0,0,0,0,0,0c0,0,0,0-0.1,0h0c0,0,0,0-0.1,0c-0.1,0-0.3-0.1-0.3-0.3c0-0.1,0-0.1,0-0.2c0,0,0,0,0,0
		c0.8-1,1.4-2.3,1.6-3.7c0.1-0.4,0.1-0.9,0.1-1.3c0-1.8-0.6-3.3-1.5-4.5c0,0,0,0,0,0c-0.9-1.4-2.2-2.8-3.3-3.9
		c-0.1-0.1-0.2-0.2-0.3-0.3c-0.1-0.1-0.2-0.2-0.2-0.3l-0.1-0.1l-2.2-2.4l0,0l-0.1-0.1l-9-9c-2.6-2.6-2.6-6.8,0-9.4
		c2.5-2.5,6.5-2.6,9.1-0.3c0.1,0.1,0.2,0.2,0.3,0.3l1.9,1.9c0,0-1.4,1.7-3,1.2c-0.4-0.1-0.8-0.3-1.2-0.8c-0.7-0.7-1.5-1-2.4-1
		c-0.9,0-1.7,0.3-2.4,1c-1.3,1.3-1.3,3.5,0,4.8l9,9l2.2,2.4c0.2,0.2,0.3,0.4,0.5,0.6C136.8,38.8,139.9,42.2,139.9,45.2"/>
	<path style="clip-path:url(#SVGID_00000133524709808810159000000013685391022368848300_);fill:#3E678E;" d="M142.9,26.4l-9.1,9.1
		l-2.2-2.4l9-9c1.3-1.3,1.3-3.5,0-4.8c-1.3-1.3-3.5-1.3-4.8,0l-1.8,1.8l-0.3,0.3c-0.6,0.5-1.3,0.8-2.1,0.8c-0.8,0-1.5-0.3-2.1-0.8
		l-2.1-2.1c0.4,0.4,0.8,0.6,1.2,0.8c1.7,0.5,3-1.2,3-1.2l1.9-1.9c0.1-0.1,0.2-0.2,0.3-0.3c2.6-2.3,6.6-2.2,9.1,0.3
		C145.5,19.6,145.5,23.8,142.9,26.4"/>
	<g style="clip-path:url(#SVGID_00000133524709808810159000000013685391022368848300_);">
		
			<text transform="matrix(0.999 -4.362205e-02 4.362205e-02 0.999 356.2851 252.1018)" style="fill:#35587A; font-family:'MarkOT-NarrowLight'; font-size:13.5001px;">Markt</text>
	</g>
</g>
<g>
	<defs>
		<rect id="SVGID_00000116206082812546729910000014475824558775133093_" x="0" y="0" width="320" height="320"/>
	</defs>
	<clipPath id="SVGID_00000136386240359988697570000008624799842371663281_">
		<use xlink:href="#SVGID_00000116206082812546729910000014475824558775133093_"  style="overflow:visible;"/>
	</clipPath>
	<path style="clip-path:url(#SVGID_00000136386240359988697570000008624799842371663281_);fill:#35587A;" d="M294.1,279.4
		c0.7-0.3,1.2-0.8,1.5-1.3l-0.6-0.5c-0.2,0.4-0.6,0.8-1.1,1c-0.8,0.3-1.6,0.1-2-1l-1.6-4.1l2.8-1.1l-0.3-0.7l-2.8,1.1l-0.9-2.1
		l-0.8,0.3l0.9,2.1l-1.4,0.6l0.3,0.7l1.4-0.6l1.7,4.1C291.8,279.5,292.8,279.9,294.1,279.4 M285.4,282.8l-1.3-3.3l1-0.4l3.9,2.2
		l1-0.4l-4.4-2.5l1.6-4.5l-1,0.4l-1.4,4l-1,0.4l-2.7-6.6l-0.8,0.3l4.3,10.7L285.4,282.8z M280.2,284.9l-1.7-4.2
		c-0.5-1.2-0.2-2.4,0.9-2.8c0.3-0.1,0.7-0.2,1.1-0.2l-0.1-0.9c-0.4,0-0.8,0-1.2,0.2c-0.8,0.3-1.3,1-1.5,1.9l-0.4-1l-0.8,0.3l2.8,7
		L280.2,284.9z M273.8,286.7c-1.4,0.6-2.8-0.2-3.5-1.9c-0.7-1.7-0.2-3.2,1.2-3.8c1.4-0.5,2.8,0.2,3.4,1.9
		C275.6,284.6,275.2,286.1,273.8,286.7 M274,287.5c1.1-0.4,1.7-1.3,1.9-2.3l0.5,1.2l0.8-0.3l-2.8-7l-0.8,0.3l0.5,1.2
		c-0.8-0.6-1.9-0.8-2.9-0.3c-1.7,0.7-2.4,2.7-1.6,4.8C270.4,287.3,272.2,288.2,274,287.5 M260.5,292.8l-3.7-9.2l6.3,5.8l0.9-0.3
		l0.5-8.6l3.7,9.2l0.9-0.3l-4.2-10.4l-1.2,0.5l-0.5,8.7l-6.4-6l-1.2,0.5l4.2,10.4L260.5,292.8z"/>
	<path style="clip-path:url(#SVGID_00000136386240359988697570000008624799842371663281_);fill:#35587A;" d="M293.1,163.7v-9.6h3.2
		v-1.6h-8.2v1.6h3.2v9.6H293.1z M279,163.7v-4.8h1l3.9,4.8h2.2l-4.7-5.7l4.4-5.5h-2.1l-3.7,4.8h-1v-4.8h-1.7v11.2H279z M267.6,154.2
		h2.3c1.3,0,2,0.5,2,1.7c0,1.1-0.7,1.7-2,1.7h-2.3V154.2z M267.6,163.7v-4.6h0.8l3.2,4.6h2.1l-3.3-4.7c2-0.2,3.3-1.4,3.3-3.2
		c0-2.1-1.4-3.3-3.8-3.3h-4v11.2H267.6z M257.7,154.4l1.7,5H256L257.7,154.4z M254.6,163.7l0.9-2.8h4.4l0.9,2.8h1.8l-3.9-11.2h-2.1
		l-3.9,11.2H254.6z M240.5,163.7v-8.9l2.9,7.1h1.7l2.9-7.1v9h1.7v-11.2h-2.5l-2.9,7.3l-2.9-7.3h-2.5v11.2H240.5z"/>
	<path style="clip-path:url(#SVGID_00000136386240359988697570000008624799842371663281_);fill:#35587A;" d="M150.7,215
		c0.4,0.7,1,1.1,1.6,1.2l0.4-0.7c-0.5-0.1-0.9-0.5-1.2-0.9c-0.5-0.7-0.4-1.5,0.6-2.1l3.7-2.4l1.6,2.5l0.7-0.4l-1.6-2.5l1.9-1.3
		l-0.5-0.7l-1.9,1.3l-0.8-1.3l-0.7,0.4l0.8,1.3l-3.7,2.4C150.2,212.7,150,213.8,150.7,215 M145.7,207.1l3-1.9l0.6,0.9l-1.4,4.3
		l0.6,0.9l1.6-4.8l4.7,0.7l-0.6-0.9l-4.2-0.6l-0.6-0.9l6-3.9l-0.5-0.7l-9.7,6.3L145.7,207.1z M142.6,202.4l3.8-2.5
		c1.1-0.7,2.3-0.6,2.9,0.3c0.2,0.3,0.4,0.7,0.4,1l0.8-0.3c0-0.4-0.2-0.7-0.4-1.1c-0.5-0.8-1.2-1.1-2.1-1.1l0.9-0.6l-0.5-0.7
		l-6.3,4.1L142.6,202.4z M139.6,196.4c-0.8-1.2-0.3-2.8,1.2-3.8c1.5-1,3.1-0.8,3.9,0.4c0.8,1.2,0.3,2.7-1.2,3.7
		C142,197.9,140.4,197.7,139.6,196.4 M138.9,196.8c0.6,1,1.6,1.4,2.6,1.4l-1.1,0.7l0.5,0.7l6.3-4.1l-0.5-0.7l-1.1,0.7
		c0.4-0.9,0.4-2-0.2-3c-1-1.6-3.1-1.9-5-0.6C138.4,193.2,137.9,195.2,138.9,196.8 M131.1,184.6l8.3-5.4l-4.5,7.3l0.5,0.8l8.6-1.2
		l-8.4,5.4l0.5,0.8l9.4-6.1l-0.7-1.1l-8.7,1.2l4.6-7.4l-0.7-1.1l-9.4,6.1L131.1,184.6z"/>
	<path style="clip-path:url(#SVGID_00000136386240359988697570000008624799842371663281_);fill:#35587A;" d="M44.9,291l6.4-2.2
		l0.9,2.7l0.7-0.3l-0.9-2.7l1.4-0.5c1.1-0.4,1.9-0.2,2.2,0.8c0.2,0.5,0.2,1,0.1,1.4l0.8,0.1c0.1-0.5,0.1-1.2-0.1-1.9
		c-0.5-1.5-1.7-1.8-3.2-1.3l-1.4,0.5l-0.5-1.5l-0.7,0.3L51,288l-6.4,2.2L44.9,291z M43.3,284.3c-0.5-1.4,0.3-2.8,2.1-3.4
		c1.7-0.6,3.2,0,3.7,1.4c0.5,1.4-0.3,2.8-2.1,3.4C45.3,286.3,43.8,285.6,43.3,284.3 M42.5,284.5c0.6,1.9,2.6,2.7,4.8,2
		c2.2-0.8,3.2-2.6,2.5-4.5c-0.6-1.9-2.6-2.7-4.8-2C42.9,280.8,41.9,282.7,42.5,284.5 M39.3,274.7l4.4-1.5c1.2-0.4,2.4,0.2,2.8,1.3
		c0.4,1.2-0.1,2.2-1.3,2.7l-4.4,1.5l0.3,0.8l4.7-1.6c1.6-0.6,2.2-1.9,1.7-3.5c-0.3-0.9-1-1.6-1.9-1.9l4.8-1.6l-0.3-0.8L39,273.9
		L39.3,274.7z M36.6,266.8l4.4-1.5c1.2-0.4,2.4,0.2,2.8,1.3c0.4,1.2-0.1,2.2-1.4,2.7l-4.4,1.5l0.3,0.8l4.7-1.6
		c1.6-0.6,2.2-1.9,1.7-3.5c-0.3-0.9-1-1.6-1.9-1.9l4.8-1.6l-0.3-0.8L36.3,266L36.6,266.8z M34.4,261c0.5,1.6,1.9,2.5,3.8,1.8
		l4.4-1.5l-0.3-0.8L38,262c-1.3,0.5-2.3-0.1-2.8-1.3c-0.4-1.2,0-2.2,1.4-2.7l4.4-1.5l-0.3-0.8l-4.4,1.5
		C34.4,257.9,33.9,259.4,34.4,261 M31.2,251.2l4.4-1.5c1.2-0.4,2.4,0.2,2.8,1.3c0.4,1.2-0.1,2.2-1.4,2.7l-4.4,1.5l0.3,0.8l4.7-1.6
		c1.6-0.6,2.2-1.9,1.7-3.5c-0.3-0.9-1-1.6-1.9-1.9l4.8-1.6l-0.3-0.8l-10.9,3.8L31.2,251.2z M29.4,246.4c0.3,0.9,1,1.6,1.9,1.9
		l0.3-0.7c-0.7-0.3-1.2-0.8-1.5-1.5c-0.5-1.3,0.3-2.7,2.1-3.3c1.8-0.6,3.2,0,3.7,1.4c0.2,0.7,0.1,1.4-0.2,2.1l0.7,0.4
		c0.5-0.8,0.6-1.8,0.3-2.7c-0.7-1.9-2.6-2.7-4.8-1.9C29.8,242.7,28.8,244.5,29.4,246.4 M26.5,238c0.7,2.1,2.3,3.3,4.2,2.6
		c1.6-0.6,2.1-2,1.8-3.8l-0.2-1.1c-0.2-1.7,0.2-2.6,1.2-2.9c1.3-0.4,2.4,0.4,2.9,1.8c0.4,1.2,0.3,2.3-0.2,3.2l0.8,0.3
		c0.6-1,0.7-2.3,0.2-3.8c-0.7-2-2.3-3.1-4.1-2.4c-1.5,0.5-2.1,1.8-1.8,3.7l0.2,1.1c0.2,1.6-0.1,2.6-1.2,3c-1.4,0.5-2.5-0.5-3-2
		c-0.4-1.3-0.2-2.6,0.2-3.5l-0.8-0.4C26.2,235,26,236.5,26.5,238"/>
	<path style="clip-path:url(#SVGID_00000136386240359988697570000008624799842371663281_);fill:#35587A;" d="M82.1,125.9
		c-0.8-1.4-0.6-2.8,0.6-3.5c1.1-0.7,2.4-0.3,3.3,1L82.1,125.9z M86.5,128.2c0.8-0.5,1.5-1.3,1.7-2.5l-0.7-0.2
		c-0.1,0.8-0.5,1.5-1.3,2c-1.2,0.8-2.6,0.5-3.6-1l4.6-3c0-0.1-0.1-0.2-0.2-0.3c-1.3-2-3.2-2.5-4.7-1.5c-1.6,1-1.9,3.1-0.6,5.1
		C82.9,128.7,84.8,129.3,86.5,128.2 M80.1,132.3c1.4-0.9,1.8-2.6,0.7-4.2c-0.8-1.2-2.1-1.7-3.2-1.3c0.6-0.8,0.7-2-0.1-3.2
		c-1-1.5-2.7-1.8-4.3-0.8c-1.7,1.1-1.9,2.8-0.9,4.4l4.6,7l0.7-0.5l-4.6-7c-0.8-1.3-0.6-2.5,0.6-3.3c1.1-0.7,2.3-0.6,3.2,0.7
		c0.8,1.3,0.4,2.4-0.6,3.1l-0.3,0.2l0.4,0.7l0.5-0.3c1.2-0.8,2.4-0.5,3.2,0.7c0.8,1.3,0.6,2.5-0.5,3.2c-0.5,0.3-0.9,0.5-1.3,0.5
		l0.2,0.7C78.9,132.9,79.5,132.7,80.1,132.3 M71.7,136.8c-1.2,0.8-2.8,0.3-3.8-1.2c-1-1.5-0.8-3.1,0.4-3.9c1.2-0.8,2.7-0.3,3.7,1.2
		C73.2,134.4,73,136,71.7,136.8 M72.1,137.5c1-0.6,1.4-1.6,1.4-2.6l0.7,1.1l0.7-0.5l-4.1-6.3l-0.7,0.5l0.7,1.1c-0.9-0.4-2-0.4-3,0.2
		c-1.6,1-1.9,3.1-0.6,5C68.5,138,70.5,138.5,72.1,137.5 M66,141.4l-2.5-3.8c-0.7-1.1-0.6-2.3,0.3-2.9c0.3-0.2,0.7-0.4,1-0.4
		l-0.3-0.8c-0.4,0-0.7,0.2-1.1,0.4c-0.8,0.5-1.1,1.2-1.1,2.1l-0.6-0.9l-0.7,0.5l4.1,6.3L66,141.4z M62.4,143.8
		c0.7-0.4,1.1-1,1.2-1.6l-0.7-0.4c-0.1,0.5-0.5,0.9-0.9,1.2c-0.7,0.5-1.5,0.4-2.1-0.6l-2.4-3.7l2.5-1.6l-0.4-0.7l-2.5,1.6l-1.3-1.9
		l-0.7,0.5l1.3,1.9l-1.3,0.8l0.4,0.7l1.3-0.8l2.4,3.7C60.1,144.3,61.3,144.5,62.4,143.8 M56.1,147.9c1.4-0.9,1.9-2.2,1.2-3.4
		c-0.6-0.9-1.6-1.1-2.9-0.6l-0.8,0.3c-1,0.4-1.6,0.3-2-0.2c-0.4-0.7-0.1-1.5,0.7-2.1c0.7-0.5,1.6-0.6,2.2-0.6l0-0.8
		c-0.8-0.1-1.7,0.1-2.6,0.7c-1.3,0.8-1.8,2.1-1,3.2c0.6,0.9,1.5,1.2,2.9,0.6l0.8-0.3c1-0.4,1.6-0.3,2,0.2c0.5,0.7,0.1,1.6-0.9,2.2
		c-0.9,0.6-1.7,0.7-2.3,0.6l0,0.8C54.2,148.7,55.2,148.5,56.1,147.9 M51.4,150.9c0.7-0.4,1.1-1,1.2-1.6L52,149
		c-0.1,0.5-0.5,0.9-0.9,1.2c-0.7,0.5-1.5,0.4-2.1-0.6l-2.4-3.7l2.5-1.6l-0.4-0.7l-2.5,1.6l-1.3-1.9l-0.7,0.5l1.3,1.9l-1.3,0.8
		l0.4,0.7l1.3-0.8l2.4,3.7C49.1,151.5,50.3,151.7,51.4,150.9 M43.5,155.9l-1.9-3l0.9-0.6l4.3,1.4l0.9-0.6l-4.8-1.6l0.7-4.7l-0.9,0.6
		l-0.6,4.2l-0.9,0.6l-3.9-6l-0.7,0.5l6.3,9.7L43.5,155.9z M38.8,159l-2.5-3.8c-0.7-1.1-0.6-2.3,0.3-2.9c0.3-0.2,0.7-0.4,1-0.4
		l-0.3-0.8c-0.4,0-0.7,0.2-1.1,0.4c-0.8,0.5-1.1,1.2-1.1,2.1l-0.6-0.9l-0.7,0.5l4.1,6.3L38.8,159z M32.9,162
		c-1.2,0.8-2.8,0.3-3.8-1.2c-1-1.5-0.8-3.1,0.4-3.9c1.2-0.8,2.7-0.3,3.7,1.2C34.3,159.6,34.1,161.2,32.9,162 M33.2,162.8
		c1-0.6,1.4-1.6,1.4-2.6l0.7,1.1l0.7-0.5l-4.1-6.3l-0.7,0.5l0.7,1.1c-0.9-0.4-2-0.4-3,0.2c-1.6,1-1.9,3.1-0.6,5
		C29.6,163.2,31.6,163.8,33.2,162.8 M21,170.6l-5.4-8.3l7.3,4.5l0.8-0.5l-1.2-8.6l5.4,8.4l0.8-0.5l-6.1-9.4l-1.1,0.7l1.2,8.7
		l-7.4-4.6l-1.1,0.7l6.1,9.4L21,170.6z"/>
	<path style="clip-path:url(#SVGID_00000136386240359988697570000008624799842371663281_);fill:#35587A;" d="M225.5,41.1l-2.6-3.8
		c-0.7-1.1-0.5-2.3,0.5-3c1.1-0.7,2.2-0.5,2.9,0.6l2.6,3.9l0.7-0.5l-2.8-4.1c-0.9-1.4-2.4-1.6-3.8-0.7c-0.8,0.5-1.3,1.4-1.3,2.4
		l-0.6-0.9l-0.7,0.5l4.2,6.2L225.5,41.1z M216.3,42.3c-0.8-1.4-0.6-2.8,0.5-3.5c1-0.7,2.4-0.3,3.3,0.9L216.3,42.3z M220.7,44.5
		c0.8-0.5,1.4-1.3,1.6-2.5l-0.7-0.2c-0.1,0.8-0.5,1.5-1.3,2c-1.2,0.8-2.6,0.5-3.7-0.9l4.6-3.1c0-0.1-0.1-0.2-0.2-0.3
		c-1.3-2-3.2-2.5-4.7-1.5c-1.6,1.1-1.9,3.1-0.6,5.1C217.1,45.1,219.1,45.6,220.7,44.5 M214.6,48.5l-2.5-3.7
		c-0.7-1.1-0.7-2.3,0.3-2.9c0.3-0.2,0.7-0.4,1-0.4l-0.3-0.8c-0.4,0-0.7,0.2-1.1,0.4c-0.8,0.5-1.1,1.3-1.1,2.1l-0.6-0.9l-0.7,0.5
		l4.2,6.2L214.6,48.5z M209.9,51.6l-2.5-3.7c-0.7-1.1-0.7-2.3,0.3-2.9c0.3-0.2,0.7-0.4,1-0.4l-0.3-0.8c-0.4,0-0.7,0.2-1.1,0.4
		c-0.8,0.5-1.1,1.3-1.1,2.1l-0.6-0.9l-0.7,0.5l4.2,6.2L209.9,51.6z M204,54.7c-1.2,0.8-2.8,0.4-3.8-1.1c-1-1.5-0.9-3.1,0.4-3.9
		c1.2-0.8,2.7-0.4,3.8,1.1C205.4,52.3,205.3,53.9,204,54.7 M204.4,55.5c1-0.7,1.4-1.6,1.4-2.6l0.7,1.1l0.7-0.5l-4.2-6.2l-0.7,0.5
		l0.7,1.1c-0.9-0.4-2-0.4-2.9,0.3c-1.6,1-1.8,3.1-0.5,5C200.8,56,202.8,56.6,204.4,55.5 M195.9,61.1l-2.6-3.8
		c-0.7-1.1-0.5-2.3,0.5-3c1.1-0.7,2.2-0.5,2.9,0.6l2.6,3.9l0.7-0.5l-2.8-4.1c-0.9-1.4-2.4-1.6-3.8-0.7c-0.8,0.5-1.3,1.3-1.3,2.3
		l-2.8-4.2l-0.7,0.5l6.4,9.6L195.9,61.1z M191.7,64.1c0.8-0.6,1.3-1.4,1.4-2.3l-0.8-0.1c-0.1,0.7-0.4,1.4-1.1,1.8
		c-1.2,0.8-2.7,0.4-3.8-1.1c-1-1.5-0.8-3.1,0.4-3.9c0.6-0.4,1.3-0.5,2.1-0.3l0.2-0.8c-0.9-0.3-1.9-0.2-2.7,0.4
		c-1.7,1.1-1.9,3.2-0.6,5.1C188.1,64.7,190.1,65.2,191.7,64.1 M185.5,68.3c1.4-0.9,1.9-2.3,1.1-3.4c-0.6-0.9-1.6-1.1-2.9-0.5
		l-0.8,0.3c-1,0.4-1.6,0.4-2-0.2c-0.5-0.7-0.1-1.5,0.7-2.1c0.7-0.5,1.6-0.7,2.1-0.6l0-0.8c-0.8-0.1-1.7,0.2-2.6,0.8
		c-1.3,0.9-1.7,2.1-1,3.2c0.6,0.8,1.5,1.1,2.9,0.5l0.8-0.3c1-0.4,1.6-0.4,2,0.2c0.5,0.7,0.1,1.6-0.9,2.2c-0.9,0.6-1.6,0.7-2.3,0.6
		l0,0.8C183.6,69.1,184.6,68.9,185.5,68.3 M177.5,73.5l-2.6-3.8c-0.7-1.1-0.5-2.3,0.5-3c1.1-0.7,2.2-0.5,2.9,0.6l2.6,3.9l0.7-0.5
		l-2.8-4.1c-0.9-1.4-2.4-1.6-3.8-0.7c-0.8,0.5-1.3,1.3-1.3,2.3l-2.8-4.2l-0.7,0.5l6.4,9.6L177.5,73.5z M173.3,76.5
		c0.8-0.6,1.3-1.4,1.4-2.3l-0.8-0.1c-0.1,0.7-0.4,1.4-1.1,1.8c-1.2,0.8-2.7,0.4-3.8-1.1c-1-1.5-0.8-3.1,0.4-3.9
		c0.6-0.4,1.3-0.5,2.1-0.3l0.2-0.8c-0.9-0.3-1.9-0.2-2.7,0.4c-1.7,1.1-1.9,3.2-0.6,5.1C169.7,77.1,171.7,77.6,173.3,76.5
		 M167.1,80.7c1.4-0.9,1.9-2.3,1.1-3.4c-0.6-0.9-1.6-1.1-2.9-0.5l-0.8,0.3c-1,0.4-1.6,0.4-2-0.2c-0.5-0.7-0.1-1.5,0.7-2.1
		c0.7-0.5,1.6-0.7,2.1-0.6l0-0.8c-0.8-0.1-1.7,0.2-2.6,0.8c-1.3,0.9-1.7,2.1-1,3.2c0.6,0.8,1.5,1.1,2.9,0.5l0.8-0.3
		c1-0.4,1.6-0.4,2,0.2c0.5,0.7,0.1,1.6-0.9,2.2c-0.9,0.6-1.6,0.7-2.3,0.6l0,0.8C165.2,81.5,166.2,81.3,167.1,80.7 M163.3,83.1
		l-4.2-6.2l-0.7,0.5l4.2,6.2L163.3,83.1z M157.5,75.4c0.3-0.2,0.3-0.5,0.2-0.8c-0.2-0.3-0.5-0.4-0.8-0.2c-0.3,0.2-0.3,0.5-0.2,0.8
		C156.9,75.5,157.2,75.5,157.5,75.4 M154,84.3c-0.8-1.4-0.6-2.8,0.5-3.5c1-0.7,2.4-0.3,3.3,0.9L154,84.3z M158.5,86.5
		c0.8-0.6,1.4-1.3,1.6-2.5l-0.7-0.2c-0.1,0.8-0.5,1.5-1.3,2c-1.2,0.8-2.6,0.5-3.7-0.9l4.6-3.1c0-0.1-0.1-0.2-0.2-0.3
		c-1.3-1.9-3.2-2.5-4.7-1.5c-1.6,1.1-1.9,3.1-0.6,5.1C154.9,87.1,156.8,87.6,158.5,86.5 M154,89.4l-6.4-9.6l-0.7,0.5l6.4,9.6
		L154,89.4z M147,94.1l-2.9-4.3l4.5-3l-0.5-0.7l-4.5,3l-2.4-3.5l4.7-3.2l-0.5-0.7l-5.5,3.7l6.3,9.3L147,94.1z"/>
	<path style="clip-path:url(#SVGID_00000136386240359988697570000008624799842371663281_);fill:#35587A;" d="M37.5,109.9
		c0.2,0.3,0.6,0.4,0.9,0.3c0.3-0.2,0.4-0.6,0.3-0.9c-0.2-0.3-0.6-0.4-0.9-0.3C37.5,109.2,37.3,109.6,37.5,109.9 M35.7,106.3l4-2.1
		c1.2-0.6,2.4-0.4,2.9,0.6c0.2,0.3,0.3,0.7,0.3,1l0.9-0.2c0-0.4-0.1-0.8-0.3-1.1c-0.4-0.8-1.1-1.2-2-1.3l0.9-0.5l-0.4-0.7l-6.7,3.5
		L35.7,106.3z M33.6,102.5c0.4,0.7,0.9,1.1,1.5,1.4l0.4-0.6c-0.4-0.2-0.8-0.5-1.1-1c-0.4-0.8-0.2-1.5,0.7-2.1l3.9-2.1l1.4,2.6
		l0.7-0.4l-1.4-2.6l2-1.1l-0.4-0.8l-2,1.1l-0.7-1.4L37.9,96l0.7,1.4l-3.9,2.1C33.2,100.2,32.9,101.3,33.6,102.5 M30,95.8
		c0.8,1.5,2.1,2.1,3.3,1.5c1-0.5,1.2-1.5,0.8-2.8l-0.3-0.8c-0.3-1-0.2-1.6,0.4-2c0.7-0.4,1.5,0,2,0.9c0.4,0.8,0.5,1.6,0.4,2.2
		l0.8,0.1c0.1-0.8,0-1.7-0.5-2.6c-0.7-1.4-1.9-1.9-3.1-1.3c-0.9,0.5-1.3,1.4-0.8,2.8l0.3,0.8c0.3,1,0.2,1.7-0.4,2
		c-0.8,0.4-1.6-0.1-2.1-1.1c-0.5-0.9-0.5-1.7-0.4-2.4L29.6,93C29.4,93.9,29.5,94.9,30,95.8 M25.6,87.3l4.1-2.2
		c1.2-0.6,2.4-0.2,2.9,0.9c0.6,1.2,0.3,2.2-0.9,2.9l-4.1,2.2l0.4,0.8l4.3-2.3c1.5-0.8,1.9-2.2,1.1-3.7c-0.5-0.9-1.2-1.5-2.2-1.5
		l1-0.5L31.9,83l-6.7,3.5L25.6,87.3z M25.4,78c1.5-0.6,2.8-0.3,3.5,0.9c0.6,1.1,0.1,2.4-1.3,3.2L25.4,78z M22.8,82.2
		c0.5,0.9,1.1,1.6,2.3,1.9l0.3-0.7c-0.8-0.2-1.5-0.7-1.9-1.5c-0.7-1.2-0.3-2.6,1.3-3.5l2.6,4.9c0.1,0,0.2-0.1,0.3-0.1
		c2.1-1.1,2.8-3,1.9-4.6c-0.9-1.7-2.9-2.2-5-1.1C22.5,78.6,21.8,80.5,22.8,82.2 M18.7,74.2l3.1-1.7l0.5,0.9l-1.8,4.1l0.5,0.9l2-4.7
		l4.6,1.1L27.1,74L23,73.1l-0.5-0.9l6.3-3.4l-0.4-0.8l-10.2,5.4L18.7,74.2z M16.4,68.4c-0.7-1.3-0.1-2.8,1.5-3.7
		c1.6-0.9,3.2-0.5,3.9,0.8c0.7,1.3,0.1,2.8-1.5,3.7C18.6,70.1,17.1,69.7,16.4,68.4 M15.6,68.8c0.9,1.8,3,2.3,5,1.2
		c2-1.1,2.8-3.1,1.8-4.8c-0.9-1.8-3-2.3-5-1.2C15.4,65.1,14.7,67,15.6,68.8 M9.8,57.7l4.6-2.4l2.9,5.4l-4.6,2.4l0.4,0.8l9.9-5.3
		l-0.4-0.8l-4.5,2.4l-2.9-5.4l4.5-2.4l-0.4-0.8l-9.9,5.3L9.8,57.7z"/>
</g>
</svg>
