<?xml version="1.0" encoding="utf-8"?>
<!-- Generator: Adobe Illustrator 26.3.1, SVG Export Plug-In . SVG Version: 6.00 Build 0)  -->
<svg version="1.1" id="Ebene_1" xmlns="http://www.w3.org/2000/svg" xmlns:xlink="http://www.w3.org/1999/xlink" x="0px" y="0px"
	 viewBox="0 0 275.9 152.7" style="enable-background:new 0 0 275.9 152.7;" xml:space="preserve">
<style type="text/css">
	.st0{fill:#3E678E;}
	.st1{fill:#E7343F;}
	.st2{fill:#34587A;}
	.st3{fill:#3F688E;}
</style>
<g>
	<path class="st0" d="M54.2,92.8l-0.5,0.5c-0.3,0.3-0.5,0.8-1.1,1.1c-0.3,0.5-0.8,0.8-1.1,1.3c-4,4.5-9.3,10.3-13,15.6
		c0,0,0,0,0,0.3c-3.7,4.8-6.1,11.1-6.1,18c0,1.9,0.3,3.4,0.5,5.3c0.8,5.6,3.2,10.9,6.4,14.8c0,0,0,0,0,0.3c0.3,0.3,0.3,0.3,0.3,0.5
		c0,0.5-0.5,1.1-1.1,1.1h-0.3l0,0c0,0-0.3,0-0.3-0.3l0,0c-10.1-5.8-17-16.7-17-29.2c0-12.2,12.5-25.7,22.5-36.6
		c0.8-0.8,1.3-1.6,2.1-2.1L54.2,92.8z"/>
	<path class="st1" d="M65.1,85.4c-0.8-0.8-1.3-1.6-2.1-2.1l0,0l-8.7-9.5l0,0L17.9,37.7c-5.3-5.3-5.3-14.1,0-19.4
		c2.7-2.7,6.1-4,9.5-4s6.9,1.3,9.5,4l1.6,1.6c0,0,1.1,0.5,2.4,1.3l0,0c1.1,0.5,2.4,0.8,3.4,0.8c0.3,0,0.5,0,0.8,0l0,0
		c0.3,0,0.8,0,1.3-0.3c0,0,0,0,0.3,0c0.8-0.3,1.3-0.5,2.1-0.8c0.3,0,0.5-0.3,0.8-0.5c1.6-0.8,2.9-2.1,3.7-2.9l0.3-0.3L54,17l0,0
		h-0.3l-3.4-3.4l-3.7-4.5C46,8.5,45.8,8.3,45.2,8C34.9-1.3,18.7-0.8,8.6,9.1c-10.3,10.3-10.3,27.3,0,37.6L24,62.1l20.7,20.7l0.5,0.5
		l9,9.5l0.5,0.5c0.3,0.3,0.5,0.8,1.1,1.1c0.3,0.5,0.8,0.8,1.1,1.3c4,4.5,9.3,10.3,13,15.6c0,0,0,0,0,0.3c3.7,4.8,6.1,11.1,6.1,18
		c0,1.9-0.3,3.4-0.5,5.3c-0.8,5.6-3.2,10.9-6.4,14.8c0,0,0,0,0,0.3c-0.3,0.3-0.3,0.3-0.3,0.5c0,0.5,0.5,1.1,1.1,1.1h0.3l0,0
		c0,0,0.3,0,0.3-0.3l0,0c10.1-5.8,17-16.7,17-29.2C87.6,109.8,75.2,96.3,65.1,85.4z"/>
	<g>
		<path class="st0" d="M99.6,9.1C89.5-1,73.6-1.3,63,8c-0.5,0.5-1.1,0.8-1.3,1.1c-1.6,1.6-5.8,5.8-7.7,7.7l0,0
			c-0.3,0-0.3,0.3-0.3,0.3l-0.3,0.3c-0.8,0.8-2.1,1.9-3.7,2.9c-0.3,0.3-0.5,0.3-0.8,0.5c-0.5,0.3-1.3,0.5-2.1,0.8c0,0,0,0-0.3,0
			c-0.5,0-0.8,0.3-1.3,0.3l0,0c-0.3,0-0.5,0-0.8,0c-1.3,0-2.4-0.3-3.4-0.8l0,0c-1.3-0.5-2.4-1.3-2.4-1.3l6.9,6.9
			c0.3,0.3,0.3,0.3,0.5,0.5c2.1,1.6,4.8,2.7,8,2.7s6.1-1.1,8.5-3.2l1.3-1.3l7.2-7.2c5.3-5.3,14.1-5.3,19.4,0s5.3,14.1,0,19.4
			L70.4,57.3l0,0L54.2,73.7l0,0l0,0l9,9.5l0,0l0,0l0.3-0.3l36.1-36.3C109.9,36.4,109.9,19.4,99.6,9.1z"/>
	</g>
	<g>
		<path class="st1" d="M254.1,73.5c8.7,0,15.6-6.6,15.6-18c0-0.8,0-1.9,0-2.7h-15.1v5.8h8c-0.8,5.3-3.7,8.2-8.5,8.2
			c-5,0-9.3-4-9.3-11.9c0-7.4,4-11.9,9.3-11.9c3.2,0,5.6,1.3,7.4,3.7l5.3-4.2c-2.7-3.7-6.9-6.1-12.5-6.1c-9.8,0-16.7,7.2-16.7,18.6
			C237.4,66.6,244.9,73.5,254.1,73.5L254.1,73.5z M216,73.5c8.7,0,15.6-6.6,15.6-18c0-0.8,0-1.9,0-2.7h-15.4v5.8h8
			c-0.8,5.3-3.7,8.2-8.5,8.2c-5,0-9.3-4-9.3-11.9c0-7.4,4-11.9,9.3-11.9c3.2,0,5.6,1.3,7.4,3.7l5.3-4.2c-2.7-3.7-6.9-6.1-12.5-6.1
			c-9.8,0-16.7,7.2-16.7,18.6C199.3,66.6,206.7,73.5,216,73.5L216,73.5z M177.8,73.5c8.5,0,14.1-5,14.1-13.8V36.9h-6.9v22.5
			c0,5-2.9,7.4-6.9,7.4c-4.2,0-6.9-2.4-6.9-7.4V36.9H164v22.8C163.7,68.4,169.3,73.5,177.8,73.5L177.8,73.5z M133.5,72.9V58.1h14.6
			v14.8h6.9V36.9h-6.9v14.6h-14.6V36.9h-7.2v36.1H133.5z"/>
		<path class="st2" d="M252.6,123.3v-6.1c0-1.9,1.1-2.9,2.4-2.9c0.5,0,1.1,0,1.3,0.3l0.3-1.1c-0.5-0.3-1.1-0.3-1.6-0.3
			c-1.3,0-2.1,0.5-2.7,1.6v-1.3h-1.1v10.1h1.3V123.3z M243.8,122.3c-1.9,0-3.2-1.6-3.2-4c0-2.4,1.3-4,3.2-4c1.9,0,3.2,1.6,3.2,4
			C247,120.7,245.7,122.3,243.8,122.3L243.8,122.3z M243.5,123.3c1.6,0,2.7-0.8,3.4-1.9v1.9h1.1v-10.1H247v1.9
			c-0.8-1.1-1.9-1.9-3.4-1.9c-2.4,0-4.2,2.1-4.2,5C239.3,121.2,241.2,123.3,243.5,123.3L243.5,123.3z M236.6,107.9h-1.1v15.4h1.1
			V107.9z M229.2,123.3c2.1,0,3.7-1.1,3.7-2.9c0-1.6-1.1-2.4-2.9-2.7l-1.1-0.3c-1.3-0.3-2.1-0.8-2.1-1.6c0-1.1,1.1-1.9,2.4-1.9
			c1.1,0,2.1,0.5,2.9,0.8l0.5-0.8c-0.5-0.5-1.9-1.1-3.2-1.1c-2.1,0-3.4,1.1-3.4,2.9c0,1.3,0.8,2.4,2.7,2.7l1.1,0.3
			c1.3,0.3,2.1,0.8,2.1,1.6c0,1.1-1.1,1.9-2.7,1.9c-1.3,0-2.4-0.5-2.9-1.1l-0.5,0.8C226.6,123.1,227.9,123.3,229.2,123.3
			L229.2,123.3z M219.4,122.3c-1.9,0-3.4-1.6-3.4-4c0-2.4,1.3-4,3.4-4c1.9,0,3.4,1.6,3.4,4C222.9,120.7,221.5,122.3,219.4,122.3
			L219.4,122.3z M219.4,123.3c2.7,0,4.5-2.1,4.5-5c0-3.2-1.9-5-4.5-5c-2.7,0-4.5,2.1-4.5,5C214.9,121.2,216.8,123.3,219.4,123.3
			L219.4,123.3z M207,123.3c3.7,0,6.1-2.9,6.1-7.4c0-0.3,0-0.3,0-0.5h-5.6v1.1h4.2c-0.3,3.7-1.9,5.6-4.8,5.6c-2.9,0-5.3-2.4-5.3-6.4
			s2.1-6.4,5.3-6.4c1.6,0,3.2,0.8,4,2.4l1.1-0.8c-1.1-1.9-2.9-2.7-5-2.7c-3.7,0-6.6,2.9-6.6,7.7C200.3,120.7,203.2,123.3,207,123.3
			L207,123.3z M186.3,123.3v-6.1c0-1.9,1.3-2.9,2.9-2.9c1.9,0,2.7,1.1,2.7,2.9v6.1h1.1v-6.6c0-2.1-1.3-3.7-3.7-3.7
			c-1.3,0-2.4,0.5-3.2,1.6V113h-1.1v10.1h1.3V123.3z M181.8,113.2h-1.1v10.1h1.1V113.2z M181.2,110.3c0.5,0,0.8-0.3,0.8-0.8
			s-0.3-0.8-0.8-0.8c-0.5,0-0.8,0.3-0.8,0.8S180.7,110.3,181.2,110.3L181.2,110.3z M178.1,123.3v-1.1H172l6.1-8v-0.8h-7.4v1.1h5.8
			l-6.1,8v0.8H178.1z M167.4,113.2h-1.1v10.1h1.1V113.2z M166.9,110.3c0.5,0,0.8-0.3,0.8-0.8s-0.3-0.8-0.8-0.8
			c-0.5,0-0.8,0.3-0.8,0.8S166.7,110.3,166.9,110.3L166.9,110.3z M158.7,122.3c-1.9,0-3.2-1.6-3.2-4c0-2.4,1.3-4,3.2-4
			s3.2,1.6,3.2,4C162.1,120.7,160.8,122.3,158.7,122.3L158.7,122.3z M158.7,123.3c1.6,0,2.7-0.8,3.4-1.9v1.6h1.1v-15.4h-1.1v6.9
			c-0.8-1.1-1.9-1.9-3.4-1.9c-2.4,0-4.2,2.1-4.2,5C154.2,121.2,156,123.3,158.7,123.3L158.7,123.3z M145.2,117.8
			c0.3-2.1,1.3-3.4,3.2-3.4c1.6,0,2.9,1.3,2.9,3.4H145.2z M148.4,123.3c1.3,0,2.7-0.3,3.7-1.6l-0.5-0.8c-0.8,0.8-1.6,1.3-2.9,1.3
			c-1.9,0-3.2-1.3-3.4-3.7h7.4c0,0,0-0.3,0-0.5c0-3.2-1.9-5-4.2-5c-2.7,0-4.2,2.1-4.2,5C143.9,121.5,145.7,123.3,148.4,123.3
			L148.4,123.3z M127.9,123.3v-6.1c0-1.9,1.3-2.9,2.9-2.9c1.9,0,2.7,1.1,2.7,2.9v6.1h1.1v-6.1c0-1.9,1.3-2.9,2.9-2.9
			c1.9,0,2.7,1.1,2.7,2.9v6.1h1.1v-6.6c0-2.1-1.3-3.7-3.7-3.7c-1.3,0-2.9,0.5-3.4,1.9c-0.5-1.1-1.6-1.9-3.2-1.9
			c-1.3,0-2.4,0.5-3.2,1.6v-1.3h-1.1v10.1C126.6,123.3,127.9,123.3,127.9,123.3z"/>
		<path class="st2" d="M275.9,93.9h-5V95h5V93.9z M264.7,100.3c2.1,0,3.7-1.6,3.7-4.2c0-1.9-1.1-3.4-2.7-3.7
			c1.3-0.3,2.1-1.6,2.1-3.7c0-2.4-1.9-4-4.2-4c-2.7,0-4.2,1.9-4.2,4.2V100h1.1V88.9c0-2.1,1.1-3.2,2.9-3.2c1.9,0,2.9,1.1,2.9,2.9
			c0,2.1-1.3,2.9-2.9,2.9h-0.5v1.1h0.8c1.9,0,3.2,1.1,3.2,3.2c0,2.1-1.1,3.2-2.9,3.2c-0.8,0-1.3-0.3-1.9-0.5l-0.3,1.1
			C263.2,100,264,100.3,264.7,100.3L264.7,100.3z M252.3,99.2c-1.9,0-3.2-1.6-3.2-4s1.3-4,3.2-4c1.9,0,3.2,1.6,3.2,4
			C255.7,97.6,254.4,99.2,252.3,99.2L252.3,99.2z M252.3,100.3c1.6,0,2.7-0.8,3.4-1.9v1.9h1.1V90.2h-1.1V92
			c-0.8-1.1-1.9-1.9-3.4-1.9c-2.4,0-4.2,2.1-4.2,5C247.8,98.1,249.6,100.3,252.3,100.3L252.3,100.3z M254.4,87.5
			c0.5,0,0.8-0.3,0.8-0.8s-0.3-0.8-0.8-0.8c-0.5,0-0.8,0.3-0.8,0.8C253.6,87.3,254.1,87.5,254.4,87.5L254.4,87.5z M250.4,87.5
			c0.5,0,0.8-0.3,0.8-0.8s-0.3-0.8-0.8-0.8c-0.5,0-0.8,0.3-0.8,0.8C249.9,87.3,250.2,87.5,250.4,87.5L250.4,87.5z M243,100v-9h3.7
			v-1.1H243v-1.9c0-1.6,0.5-2.4,1.9-2.4c0.8,0,1.3,0.3,1.9,0.5l0.5-1.1c-0.5-0.3-1.3-0.8-2.4-0.8c-2.1,0-2.9,1.3-2.9,3.4v1.9h-2.1
			v1.1h2.1v9h1.1V100z M231.1,94.4c0.3-2.1,1.3-3.4,3.2-3.4c1.6,0,2.9,1.3,2.9,3.4H231.1z M234.3,100.3c1.3,0,2.7-0.3,3.7-1.6
			l-0.5-0.8c-0.8,0.8-1.6,1.3-2.9,1.3c-1.9,0-3.2-1.3-3.4-3.7h7.4c0,0,0-0.3,0-0.5c0-3.2-1.9-5-4.2-5c-2.7,0-4.2,2.1-4.2,5
			C230,98.1,231.6,100.3,234.3,100.3L234.3,100.3z M221.8,100.3c3.7,0,6.1-2.9,6.1-7.4c0-0.3,0-0.3,0-0.5h-5.6v1.1h4.5
			c-0.3,3.7-1.9,5.6-4.8,5.6c-2.9,0-5.3-2.4-5.3-6.4c0-4,2.1-6.4,5.3-6.4c1.6,0,3.2,0.8,4,2.4l1.1-0.8c-1.1-1.9-2.9-2.7-5-2.7
			c-3.7,0-6.6,2.9-6.6,7.7C215.4,97.3,218.4,100.3,221.8,100.3L221.8,100.3z M204.3,99.2c-1.9,0-3.2-1.6-3.2-4s1.3-4,3.2-4
			c1.9,0,3.2,1.6,3.2,4C207.7,97.6,206.2,99.2,204.3,99.2L204.3,99.2z M204,100.3c1.6,0,2.7-0.8,3.4-1.9v1.6h1.1V84.6h-1.1v6.9
			c-0.8-1.1-1.9-1.9-3.4-1.9c-2.4,0-4.2,2.1-4.2,5C199.8,98.1,201.6,100.3,204,100.3L204,100.3z M190.5,100v-6.1
			c0-1.9,1.3-2.9,2.9-2.9c1.9,0,2.7,1.1,2.7,2.9v6.1h1.1v-6.6c0-2.1-1.3-3.7-3.7-3.7c-1.3,0-2.4,0.5-3.2,1.6v-1.6h-1.1v10.1h1.3V100
			z M182.3,100.3c2.1,0,4-1.3,4-4v-6.1h-1.1v6.1c0,1.9-1.1,2.9-2.9,2.9c-1.6,0-2.9-1.1-2.9-2.9v-6.1h-1.1v6.1
			C178.3,98.9,180.2,100.3,182.3,100.3L182.3,100.3z M172.5,93.9h-5V95h5V93.9z M165.6,100v-1.1h-6.1l6.1-8v-0.8h-7.7v1.1h5.8
			l-6.1,8v0.8H165.6z M152.1,100v-6.1c0-1.9,1.1-2.9,2.4-2.9c0.5,0,1.1,0,1.3,0.3l0.3-1.1c-0.5-0.3-1.1-0.3-1.6-0.3
			c-1.3,0-2.1,0.5-2.7,1.6v-1.3h-1.1v10.1h1.3V100z M141.2,94.4c0.3-2.1,1.3-3.4,3.2-3.4c1.6,0,2.9,1.3,2.9,3.4H141.2z M144.4,100.3
			c1.3,0,2.7-0.3,3.7-1.6l-0.8-0.8c-0.8,0.8-1.6,1.3-2.9,1.3c-1.9,0-3.2-1.3-3.4-3.7h7.4c0,0,0-0.3,0-0.5c0-3.2-1.9-5-4.2-5
			c-2.7,0-4.2,2.1-4.2,5C139.9,98.1,141.7,100.3,144.4,100.3L144.4,100.3z M128.2,100v-6.9h8.2v6.9h1.3V85.1h-1.3V92h-8.2v-6.9h-1.3
			V100H128.2z"/>
	</g>
	<g>
		<path class="st3" d="M193.4,91.2"/>
	</g>
</g>
</svg>
