<svg enable-background="new 0 0 975 315" viewBox="0 0 975 315" xmlns="http://www.w3.org/2000/svg"><g fill="#385f88"><path d="m164.2 315c-41.8-47.1-40.3-119.5 4.8-164.7 23.4-23.3 54.2-35 84.9-35 24.6 0 49.2 7.5 70.1 22.5 1.5 1.1 2.9 2.1 4.4 3.3 1.3 1.3 2.7 2.5 4 3.4.2.4.6.8 1 .8 15.7 13.1 32.4 18.8 50.3 17.7 32.1-1.8 60.9-24.6 76.7-39.8 2.9-2.7 5.2-5.2 7.1-7.1l-47.3-47.2c-3.6-3.7-7.3-7.1-11.1-10.4-44.4-38.9-99.7-58.5-155.3-58.5-60.3 0-120.6 23.1-166.3 68.8-66.4 66.5-84.7 163.1-54.9 246.2z"/><path d="m573 213.7 63.2-63.4c46.7-46.7 123-46.7 169.8 0 45 45.2 46.6 117.6 4.6 164.7h131.7c29.8-83.1 11.5-179.7-54.9-246.2-88.2-88-229.4-91.4-321.6-10.4-3.9 3.2-7.5 6.7-11.2 10.4 0 0-79.3 79.5-81.8 81.7-19.8 17.8-51.1 39.4-87.4 41.3-1.7.2-3.4.2-5 .2l33.2 33.3c19.8 17.1 45.6 27.5 73.8 27.5s54.2-10.4 74-27.5z"/></g></svg>