<?xml version="1.0" encoding="utf-8"?>
<!-- Generator: Adobe Illustrator 26.3.1, SVG Export Plug-In . SVG Version: 6.00 Build 0)  -->
<svg version="1.1" id="Ebene_1" xmlns="http://www.w3.org/2000/svg" xmlns:xlink="http://www.w3.org/1999/xlink" x="0px" y="0px"
	 viewBox="0 0 50 71" style="enable-background:new 0 0 50 71;" xml:space="preserve">
<style type="text/css">
	.st0{fill:#3E678E;}
	.st1{fill:#E7343F;}
</style>
<g>
	<path class="st0" d="M25,43.2l-0.2,0.2c-0.1,0.1-0.2,0.4-0.5,0.5c-0.1,0.2-0.4,0.4-0.5,0.6c-1.9,2.1-4.4,4.8-6.1,7.3c0,0,0,0,0,0.1
		c-1.7,2.3-2.9,5.2-2.9,8.5c0,0.9,0.1,1.6,0.2,2.5c0.4,2.6,1.5,5.1,3,7c0,0,0,0,0,0.1c0.1,0.1,0.1,0.1,0.1,0.2
		c0,0.2-0.2,0.5-0.5,0.5h-0.1l0,0c0,0-0.1,0-0.1-0.1l0,0c-4.7-2.7-8-7.8-8-13.7c0-5.7,5.9-12.1,10.6-17.2c0.4-0.4,0.6-0.8,1-1
		L25,43.2z"/>
	<path class="st1" d="M30.2,39.7c-0.4-0.4-0.6-0.8-1-1l0,0l-4.1-4.5l0,0L8,17.3c-2.5-2.5-2.5-6.6,0-9.1c1.3-1.3,2.9-1.9,4.5-1.9
		s3.2,0.6,4.5,1.9l0.8,0.8c0,0,0.5,0.2,1.1,0.6l0,0c0.5,0.2,1.1,0.4,1.6,0.4c0.1,0,0.2,0,0.4,0l0,0c0.1,0,0.4,0,0.6-0.1
		c0,0,0,0,0.1,0c0.4-0.1,0.6-0.2,1-0.4c0.1,0,0.2-0.1,0.4-0.2c0.8-0.4,1.4-1,1.7-1.4l0.1-0.1L25,7.6l0,0h-0.1L23.2,6l-1.7-2.1
		c-0.3-0.3-0.4-0.4-0.7-0.5C16-1,8.4-0.8,3.6,3.9c-4.8,4.8-4.8,12.8,0,17.7l7.2,7.2l9.7,9.7l0.2,0.2l4.2,4.5l0.2,0.2
		c0.1,0.1,0.2,0.4,0.5,0.5c0.1,0.2,0.4,0.4,0.5,0.6c1.9,2.1,4.4,4.8,6.1,7.3c0,0,0,0,0,0.1c1.7,2.3,2.9,5.2,2.9,8.5
		c0,0.9-0.1,1.6-0.2,2.5c-0.4,2.6-1.5,5.1-3,7c0,0,0,0,0,0.1c-0.1,0.1-0.1,0.1-0.1,0.2c0,0.2,0.2,0.5,0.5,0.5h0.1l0,0
		c0,0,0.1,0,0.1-0.1l0,0c4.7-2.7,8-7.8,8-13.7C40.7,51.2,34.9,44.8,30.2,39.7z"/>
	<g>
		<path class="st0" d="M46.4,3.9C41.6-0.9,34.2-1,29.2,3.4c-0.2,0.2-0.5,0.4-0.6,0.5c-0.8,0.8-2.7,2.7-3.6,3.6l0,0
			c-0.1,0-0.1,0.1-0.1,0.1l-0.1,0.1c-0.4,0.4-1,0.9-1.7,1.4c-0.1,0.1-0.2,0.1-0.4,0.2c-0.2,0.1-0.6,0.2-1,0.4c0,0,0,0-0.1,0
			c-0.2,0-0.4,0.1-0.6,0.1l0,0c-0.1,0-0.2,0-0.4,0c-0.6,0-1.1-0.1-1.6-0.4l0,0c-0.6-0.2-1.1-0.6-1.1-0.6l3.2,3.2
			c0.1,0.1,0.1,0.1,0.2,0.2c1,0.8,2.3,1.3,3.8,1.3s2.9-0.5,4-1.5l0.6-0.6l3.4-3.4c2.5-2.5,6.6-2.5,9.1,0s2.5,6.6,0,9.1l-9.4,9.3l0,0
			L25,34.2l0,0l0,0l4.2,4.5l0,0l0,0l0.1-0.1l17-17.1C51.2,16.7,51.2,8.7,46.4,3.9z"/>
	</g>
</g>
</svg>
