<?xml version="1.0" encoding="utf-8"?>
<!-- Generator: Adobe Illustrator 26.3.1, SVG Export Plug-In . SVG Version: 6.00 Build 0)  -->
<svg version="1.1" id="Ebene_1" xmlns="http://www.w3.org/2000/svg" xmlns:xlink="http://www.w3.org/1999/xlink" x="0px" y="0px"
	 viewBox="0 0 210 50" style="enable-background:new 0 0 210 50;" xml:space="preserve">
<style type="text/css">
	.st0{fill:#FFFFFF;}
</style>
<g>
	<path class="st0" d="M148,29.1c6.7,0,11.9-5.1,11.9-13.7c0-0.7,0-1.4-0.1-2h-11.5v4.4h6.2c-0.6,4.1-2.8,6.2-6.6,6.2
		c-4,0-7.1-3.1-7.1-9.2c0-5.8,2.9-9.1,7.1-9.1c2.4,0,4.3,1,5.6,2.8l4-3.3c-2-2.9-5.3-4.6-9.5-4.6c-7.6,0-12.8,5.6-12.8,14.2
		C135.3,23.9,140.9,29.1,148,29.1 M118.8,29.1c6.7,0,11.9-5.1,11.9-13.7c0-0.7,0-1.4-0.1-2H119v4.4h6.2c-0.6,4.1-2.8,6.2-6.6,6.2
		c-4,0-7.1-3.1-7.1-9.2c0-5.8,2.9-9.1,7.1-9.1c2.4,0,4.3,1,5.6,2.8l4-3.3c-2-2.9-5.3-4.6-9.5-4.6c-7.6,0-12.8,5.6-12.8,14.2
		C106,23.9,111.6,29.1,118.8,29.1 M89.5,29.1c6.6,0,10.7-3.8,10.7-10.5V1.1h-5.4v17.2c0,3.8-2.2,5.6-5.3,5.6c-3.2,0-5.3-1.8-5.3-5.6
		V1.1h-5.4v17.4C78.8,25.3,83,29.1,89.5,29.1 M55.6,28.7V17.2h11.1v11.4h5.4V1.1h-5.4v11.2H55.6V1.1h-5.4v27.5H55.6z"/>
	<path class="st0" d="M206.9,49.4v-4.6c0-1.4,0.8-2.3,1.9-2.3c0.4,0,0.8,0.1,1.1,0.2l0.2-0.9c-0.3-0.2-0.7-0.3-1.2-0.3
		c-0.9,0-1.6,0.4-2.1,1.2v-1.1H206v7.6H206.9z M200.1,48.7c-1.5,0-2.5-1.3-2.5-3.1c0-1.9,1-3.1,2.5-3.1c1.5,0,2.5,1.2,2.5,3.1
		C202.7,47.4,201.6,48.7,200.1,48.7 M200,49.5c1.2,0,2.1-0.6,2.6-1.5v1.3h0.9v-7.6h-0.9v1.3c-0.6-0.9-1.4-1.4-2.6-1.4
		c-1.9,0-3.3,1.6-3.3,3.9C196.7,47.9,198.1,49.5,200,49.5 M194.7,37.7h-0.9v11.7h0.9V37.7z M189.1,49.5c1.7,0,2.9-0.8,2.9-2.2
		c0-1.1-0.7-1.8-2.1-2.1l-0.8-0.2c-1.1-0.2-1.6-0.6-1.6-1.3c0-0.8,0.7-1.3,1.8-1.3c0.9,0,1.7,0.3,2.2,0.7l0.4-0.6
		c-0.6-0.5-1.5-0.8-2.6-0.8c-1.6,0-2.7,0.8-2.7,2.2c0,1,0.6,1.8,2.1,2.1l0.8,0.2c1.1,0.2,1.6,0.6,1.6,1.3c0,0.9-0.8,1.4-2,1.4
		c-1.1,0-1.8-0.3-2.3-0.8l-0.4,0.6C187.1,49.2,188,49.5,189.1,49.5 M181.6,48.7c-1.5,0-2.6-1.2-2.6-3.1c0-1.9,1.1-3.1,2.6-3.1
		c1.5,0,2.6,1.2,2.6,3.1C184.2,47.4,183.1,48.7,181.6,48.7 M181.6,49.5c2,0,3.5-1.6,3.5-3.9s-1.4-3.9-3.5-3.9c-2,0-3.5,1.6-3.5,3.9
		C178.1,47.9,179.6,49.5,181.6,49.5 M172,49.5c2.9,0,4.7-2.2,4.7-5.7c0-0.1,0-0.3,0-0.4h-4.3v0.9h3.3c-0.1,2.7-1.5,4.3-3.7,4.3
		c-2.3,0-4-1.8-4-4.9c0-3.1,1.7-4.9,4-4.9c1.3,0,2.4,0.6,3.1,1.7l0.7-0.6c-0.9-1.3-2.2-2.1-3.8-2.1c-2.9,0-5,2.2-5,5.8
		C167,47.4,169.2,49.5,172,49.5 M156.1,49.4v-4.7c0-1.3,1-2.2,2.2-2.2c1.3,0,2.1,0.8,2.1,2.2v4.7h0.9v-5c0-1.7-1.1-2.8-2.8-2.8
		c-1,0-1.9,0.4-2.4,1.3v-1.2h-0.9v7.6H156.1z M152.8,41.7h-0.9v7.6h0.9V41.7z M152.3,39.6c0.3,0,0.6-0.3,0.6-0.6
		c0-0.3-0.3-0.6-0.6-0.6c-0.3,0-0.6,0.3-0.6,0.6C151.7,39.3,152,39.6,152.3,39.6 M149.8,49.4v-0.8h-4.7l4.7-6.2v-0.7h-5.7v0.8h4.5
		l-4.7,6.2v0.7H149.8z M141.8,41.7h-0.9v7.6h0.9V41.7z M141.4,39.6c0.3,0,0.6-0.3,0.6-0.6c0-0.3-0.3-0.6-0.6-0.6
		c-0.3,0-0.6,0.3-0.6,0.6C140.8,39.3,141.1,39.6,141.4,39.6 M135.1,48.7c-1.5,0-2.5-1.2-2.5-3.1s1-3.1,2.5-3.1
		c1.5,0,2.5,1.2,2.5,3.1C137.6,47.4,136.6,48.7,135.1,48.7 M135,49.5c1.2,0,2.1-0.5,2.6-1.4v1.3h0.9V37.7h-0.9V43
		c-0.6-0.8-1.5-1.4-2.6-1.4c-1.9,0-3.3,1.6-3.3,3.9C131.7,47.9,133.1,49.5,135,49.5 M124.6,45.1c0.1-1.6,1.1-2.7,2.4-2.7
		c1.3,0,2.2,1.1,2.3,2.7H124.6z M127.1,49.5c1,0,1.9-0.3,2.8-1.2l-0.5-0.6c-0.6,0.6-1.3,1-2.2,1c-1.4,0-2.5-1-2.6-2.8h5.6
		c0-0.1,0-0.2,0-0.3c0-2.4-1.3-3.9-3.2-3.9c-1.9,0-3.3,1.6-3.3,3.9C123.7,48,125.1,49.5,127.1,49.5 M111.5,49.4v-4.7
		c0-1.3,1-2.2,2.2-2.2c1.3,0,2.1,0.8,2.1,2.2v4.7h0.9v-4.7c0-1.3,1-2.2,2.2-2.2c1.3,0,2.1,0.8,2.1,2.2v4.7h0.9v-5
		c0-1.7-1.1-2.8-2.8-2.8c-1.1,0-2.1,0.5-2.7,1.4c-0.4-0.9-1.3-1.4-2.5-1.4c-1,0-1.9,0.4-2.4,1.2v-1.1h-0.9v7.6H111.5z"/>
	<path class="st0" d="M105.6,49.5c1.7,0,2.9-1.2,2.9-3.2c0-1.5-0.9-2.6-2-2.9c1-0.3,1.7-1.3,1.7-2.8c0-1.8-1.3-3.1-3.2-3.1
		c-2.1,0-3.2,1.4-3.2,3.3v8.5h0.9v-8.5c0-1.6,0.9-2.5,2.3-2.5c1.3,0,2.3,0.8,2.3,2.3c0,1.6-1,2.3-2.2,2.3h-0.4v0.8h0.6
		c1.4,0,2.4,0.9,2.4,2.4c0,1.6-0.9,2.4-2.2,2.4c-0.6,0-1.1-0.1-1.4-0.3l-0.2,0.8C104.3,49.4,104.9,49.5,105.6,49.5 M96.1,48.7
		c-1.5,0-2.5-1.3-2.5-3.1c0-1.9,1-3.1,2.5-3.1c1.5,0,2.5,1.2,2.5,3.1C98.6,47.4,97.6,48.7,96.1,48.7 M95.9,49.5
		c1.2,0,2.1-0.6,2.6-1.5v1.3h0.9v-7.6h-0.9v1.3c-0.6-0.9-1.4-1.4-2.6-1.4c-1.9,0-3.3,1.6-3.3,3.9C92.7,47.9,94,49.5,95.9,49.5
		 M97.7,39.9c0.3,0,0.6-0.3,0.6-0.6s-0.3-0.6-0.6-0.6c-0.3,0-0.6,0.3-0.6,0.6C97.1,39.6,97.4,39.9,97.7,39.9 M94.7,39.9
		c0.3,0,0.6-0.3,0.6-0.6s-0.3-0.6-0.6-0.6c-0.3,0-0.6,0.3-0.6,0.6C94.1,39.6,94.3,39.9,94.7,39.9 M89,49.4v-6.8h2.9v-0.8H89v-1.5
		c0-1.2,0.4-1.8,1.5-1.8c0.5,0,1,0.2,1.4,0.4l0.3-0.7c-0.5-0.3-1.1-0.5-1.8-0.5c-1.6,0-2.3,1-2.3,2.7v1.5h-1.6v0.8h1.6v6.8H89z
		 M79.8,45.1c0.1-1.6,1.1-2.7,2.4-2.7c1.3,0,2.2,1.1,2.3,2.7H79.8z M82.3,49.5c1,0,1.9-0.3,2.8-1.2l-0.5-0.6c-0.6,0.6-1.3,1-2.2,1
		c-1.4,0-2.5-1-2.6-2.8h5.6c0-0.1,0-0.2,0-0.3c0-2.4-1.3-3.9-3.2-3.9c-1.9,0-3.3,1.6-3.3,3.9C78.9,48,80.3,49.5,82.3,49.5
		 M72.7,49.5c2.9,0,4.7-2.2,4.7-5.7c0-0.1,0-0.3,0-0.4h-4.3v0.9h3.3c-0.1,2.7-1.5,4.3-3.7,4.3c-2.3,0-4-1.8-4-4.9
		c0-3.1,1.7-4.9,4-4.9c1.3,0,2.4,0.6,3.1,1.7l0.7-0.6c-0.9-1.3-2.2-2.1-3.8-2.1c-2.9,0-5,2.2-5,5.8C67.8,47.4,70,49.5,72.7,49.5
		 M59.3,48.7c-1.5,0-2.5-1.2-2.5-3.1s1-3.1,2.5-3.1c1.5,0,2.5,1.2,2.5,3.1C61.8,47.4,60.8,48.7,59.3,48.7 M59.1,49.5
		c1.2,0,2.1-0.5,2.6-1.4v1.3h0.9V37.7h-0.9V43c-0.6-0.8-1.5-1.4-2.6-1.4c-1.9,0-3.3,1.6-3.3,3.9C55.8,47.9,57.2,49.5,59.1,49.5
		 M48.8,49.4v-4.7c0-1.3,1-2.2,2.2-2.2c1.3,0,2.1,0.8,2.1,2.2v4.7H54v-5c0-1.7-1.1-2.8-2.8-2.8c-1,0-1.9,0.4-2.4,1.3v-1.2h-0.9v7.6
		H48.8z M42.5,49.5c1.7,0,3-1,3-3v-4.8h-0.9v4.7c0,1.4-0.9,2.2-2.1,2.2c-1.3,0-2.1-0.8-2.1-2.2v-4.7h-0.9v4.8
		C39.5,48.5,40.8,49.5,42.5,49.5 M35,44.7h-3.9v0.8H35V44.7z M29.5,49.4v-0.8h-4.7l4.7-6.2v-0.7h-5.7v0.8h4.5l-4.7,6.2v0.7H29.5z
		 M19.3,49.4v-4.6c0-1.4,0.8-2.3,1.9-2.3c0.4,0,0.8,0.1,1.1,0.2l0.2-0.9c-0.3-0.2-0.7-0.3-1.2-0.3c-0.9,0-1.6,0.4-2.1,1.2v-1.1h-0.9
		v7.6H19.3z M10.9,45.1c0.1-1.6,1.1-2.7,2.4-2.7c1.3,0,2.2,1.1,2.3,2.7H10.9z M13.4,49.5c1,0,1.9-0.3,2.8-1.2l-0.5-0.6
		c-0.6,0.6-1.3,1-2.2,1c-1.4,0-2.5-1-2.6-2.8h5.6c0-0.1,0-0.2,0-0.3c0-2.4-1.3-3.9-3.2-3.9c-1.9,0-3.3,1.6-3.3,3.9
		C10,48,11.4,49.5,13.4,49.5 M1,49.4v-5.3h6.2v5.3h0.9V38H7.2v5.2H1V38H0.1v11.4H1z"/>
</g>
</svg>
