<?xml version="1.0" encoding="utf-8"?>
<!-- Generator: Adobe Illustrator 26.5.0, SVG Export Plug-In . SVG Version: 6.00 Build 0)  -->
<svg version="1.1" id="Komponente_37_6" xmlns="http://www.w3.org/2000/svg" xmlns:xlink="http://www.w3.org/1999/xlink" x="0px"
	 y="0px" viewBox="0 0 60 60" style="enable-background:new 0 0 60 60;" xml:space="preserve">
<style type="text/css">
	.st0{fill:#F4F6F8;}
	.st1{fill:none;stroke:#7E90A5;stroke-linecap:round;stroke-linejoin:round;stroke-miterlimit:10;}
</style>
<path id="Pfad_1237" class="st0" d="M30,60c16.6,0,30-13.4,30-30S46.6,0,30,0S0,13.5,0,30S13.4,60,30,60"/>
<g>
	<g>
		<path class="st1" d="M33.2,33.2c1.8-1.8,1.8-4.6,0-6.4c-1.8-1.8-4.6-1.8-6.4,0c-1.8,1.8-1.8,4.6,0,6.4
			C28.6,34.9,31.4,34.9,33.2,33.2"/>
		<circle class="st1" cx="30" cy="30" r="4.5"/>
	</g>
	<g>
		<path class="st1" d="M43.8,30c0,2.5-2,4.5-4.5,4.5c-0.1,0-0.1,0-0.2,0c0-1.1-0.5-2.2-1.3-3.1c-0.8-0.8-1.9-1.3-3-1.3v-0.2
			c1.1-0.1,2.1-0.5,2.9-1.3c0.9-0.9,1.3-2,1.3-3.1c0.1,0,0.2,0,0.2,0C41.8,25.5,43.8,27.5,43.8,30z"/>
		<path class="st1" d="M34.5,20.7c0,0.1,0,0.1,0,0.2c-1.1,0-2.2,0.5-3.1,1.3c-0.8,0.8-1.3,1.9-1.3,3h-0.2c-0.1-1.1-0.5-2.1-1.3-2.9
			c-0.9-0.9-2-1.3-3.1-1.3c0-0.1,0-0.2,0-0.2c0-2.5,2-4.5,4.5-4.5C32.4,16.2,34.5,18.2,34.5,20.7z"/>
		<path class="st1" d="M34.5,39.3c0,2.5-2,4.5-4.5,4.5c-2.5,0-4.5-2-4.5-4.5c0-0.1,0-0.1,0-0.2c1.1,0,2.2-0.5,3.1-1.3
			c0.8-0.8,1.3-1.9,1.3-3h0.2c0.1,1.1,0.5,2.1,1.3,2.9c0.9,0.9,2,1.3,3.1,1.3C34.5,39.1,34.5,39.2,34.5,39.3z"/>
		<path class="st1" d="M30,25.5c0-0.1,0-0.2,0-0.2c0-1.1,0.5-2.2,1.3-3c0.8-0.9,2-1.3,3.1-1.3c1.2,0,2.4,0.4,3.3,1.3
			c0.9,0.9,1.3,2.1,1.3,3.2c0,1.1-0.5,2.3-1.3,3.1c-0.8,0.8-1.9,1.2-2.9,1.3c-0.1,0-0.2,0-0.2,0c0-0.1,0-0.1,0-0.2"/>
		<path class="st1" d="M30,34.5c0,0.1,0,0.2,0,0.3c0,1.1-0.5,2.2-1.3,3c-0.8,0.9-2,1.3-3.1,1.3c-1.2,0-2.4-0.4-3.3-1.3
			c-0.9-0.9-1.3-2.1-1.3-3.2c0-1.1,0.5-2.3,1.3-3.1c0.8-0.8,1.9-1.2,2.9-1.3c0.1,0,0.2,0,0.3,0"/>
		<path class="st1" d="M25.5,30c-0.1,0-0.2,0-0.3,0c-1.1,0-2.2-0.5-3-1.3c-0.9-0.9-1.3-2-1.3-3.1c0-1.2,0.4-2.4,1.3-3.3
			c0.9-0.9,2.1-1.3,3.2-1.3c1.1,0,2.3,0.5,3.1,1.3c0.8,0.8,1.2,1.9,1.3,2.9c0,0.1,0,0.2,0,0.2"/>
		<path class="st1" d="M34.5,30.1C34.5,30.1,34.5,30.1,34.5,30.1c0.1-0.1,0.2-0.1,0.3-0.1c1.1,0,2.2,0.5,3,1.3
			c0.8,0.9,1.3,2,1.3,3.1c0,1.2-0.4,2.4-1.3,3.3c-0.9,0.9-2.1,1.3-3.2,1.3c-1.1,0-2.3-0.5-3.1-1.3c-0.8-0.8-1.2-1.9-1.3-2.9
			c0-0.1,0-0.2,0-0.3"/>
	</g>
</g>
<path class="st1" d="M25.2,29.9"/>
<path class="st1" d="M20.7,25.5c-2.5,0-4.5,2-4.5,4.5c0,2.5,2,4.5,4.5,4.5c0.1,0,0.1,0,0.2,0"/>
</svg>
