<?xml version="1.0" encoding="UTF-8"?><svg id="Ebene_2" xmlns="http://www.w3.org/2000/svg" xmlns:xlink="http://www.w3.org/1999/xlink" viewBox="0 0 131.47 61.07"><defs><style>.cls-1{clip-path:url(#clippath);}.cls-2{stroke-width:0px;}.cls-2,.cls-3,.cls-4{fill:none;}.cls-3,.cls-4{stroke:#3e668e;stroke-width:1.5px;}.cls-4{stroke-linecap:round;stroke-linejoin:round;}</style><clipPath id="clippath"><rect class="cls-2" x="55.76" y="25.52" width="20" height="8.2"/></clipPath></defs><g id="Ebene_1-2"><g id="Gruppe_3049"><g id="Gruppe_3038"><path id="Pfad_1701" class="cls-4" d="M91.72,52.82v7.5h39V7.12h-7.6"/></g><g id="Gruppe_3040"><path id="Pfad_1701-2" class="cls-4" d="M7.13,52.82v7.5h39V7.12h-7.6"/></g><path id="Pfad_1756" class="cls-4" d="M85.35,52.65h37.8V.75h-37.8v51.9Z"/><path id="Pfad_1757" class="cls-4" d="M.75,52.65h37.8V.75H.75v51.9Z"/><g id="Gruppe_3047"><path id="Pfad_1703" class="cls-4" d="M112.34,19.55h-16.2"/></g><g id="Gruppe_3048"><path id="Pfad_1703-2" class="cls-4" d="M27.75,19.55H11.55"/></g><g id="Gruppe_3041"><path id="Pfad_1704" class="cls-4" d="M112.34,26.97h-16.2"/></g><g id="Gruppe_3042"><path id="Pfad_1704-2" class="cls-4" d="M27.75,26.97H11.55"/></g><g id="Gruppe_3043"><path id="Pfad_1705" class="cls-4" d="M112.34,34.83h-16.2"/></g><g id="Gruppe_3044"><path id="Pfad_1705-2" class="cls-4" d="M27.75,34.83H11.55"/></g><g id="Gruppe_3045"><g class="cls-1"><g id="Gruppe_3000"><g id="Gruppe_2997"><path id="Pfad_1747" class="cls-3" d="M56.49,29.63h18.5"/></g><g id="Gruppe_2998"><path id="Pfad_1748" class="cls-3" d="M60.5,33.35l-4-3.7,4-3.7"/></g><g id="Gruppe_2999"><path id="Pfad_1749" class="cls-3" d="M71.02,25.9l4,3.7-4,3.7"/></g></g></g></g></g></g></svg>