<?xml version="1.0" encoding="utf-8"?>
<!-- Generator: Adobe Illustrator 26.3.1, SVG Export Plug-In . SVG Version: 6.00 Build 0)  -->
<svg version="1.1" id="Komponente_37_6" xmlns="http://www.w3.org/2000/svg" xmlns:xlink="http://www.w3.org/1999/xlink" x="0px"
	 y="0px" viewBox="0 0 60 60" style="enable-background:new 0 0 60 60;" xml:space="preserve">
<style type="text/css">
	.st0{fill:#F4F6F8;}
	.st1{fill:none;stroke:#7E90A5;stroke-linecap:round;stroke-linejoin:round;stroke-miterlimit:10;}
</style>
<path id="Pfad_1237" class="st0" d="M30,60c16.6,0,30-13.4,30-30S46.6,0,30,0S0,13.4,0,30S13.4,60,30,60"/>
<g id="Gruppe_1896" transform="translate(0 60)">
	<g id="Gruppe_1889" transform="translate(30 0)">
		<g>
			<path class="st1" d="M6.8-40.9c-2.9,0-5.5,1.6-6.8,4.1c-1.3-2.4-3.9-4.1-6.8-4.1c-4.3,0-7.7,3.5-7.7,7.7
				C-14.5-25.7,0-16.3,0-16.3s14.5-9.4,14.5-16.9C14.5-37.4,11-40.9,6.8-40.9z"/>
		</g>
	</g>
</g>
</svg>
