<?xml version="1.0" encoding="utf-8"?>
<!-- Generator: Adobe Illustrator 27.8.1, SVG Export Plug-In . SVG Version: 6.00 Build 0)  -->
<svg version="1.1" id="Ebene_1" xmlns="http://www.w3.org/2000/svg" xmlns:xlink="http://www.w3.org/1999/xlink" x="0px" y="0px"
	 viewBox="0 0 40.3 40.3" style="enable-background:new 0 0 40.3 40.3;" xml:space="preserve">
<style type="text/css">
	.st0{fill:#3D668E;}
	.st1{fill:none;stroke:#FFFFFF;}
</style>
<g id="Gruppe_3089" transform="translate(0 28.346)">
	<g>
		<g id="Gruppe_3082" transform="translate(0 -28.346)">
			<g id="Gruppe_3080" transform="translate(0 0)">
				<path id="Pfad_1780" class="st0" d="M0,20.1C0,9,9,0,20.1,0s20.1,9,20.1,20.1s-9,20.1-20.1,20.1S0,31.2,0,20.1
					C0,20.1,0,20.1,0,20.1"/>
			</g>
			<g id="Gruppe_3081" transform="translate(8.407 8.407)">
				<path id="Pfad_1781" class="st1" d="M11.7,23.4c6.5,0,11.7-5.2,11.7-11.7c0,0,0,0,0,0C23.4,5.2,18.2,0,11.7,0c0,0,0,0,0,0
					C5.2,0,0,5.2,0,11.7c0,0,0,0,0,0C0,18.2,5.2,23.4,11.7,23.4C11.7,23.4,11.7,23.4,11.7,23.4z"/>
			</g>
		</g>
	</g>
	<g id="Gruppe_3083" transform="translate(20.131 -20.294)">
		<path id="Pfad_1783" class="st1" d="M0,0v24.2"/>
	</g>
	<g id="Gruppe_3084" transform="translate(8.053 -8.215)">
		<path id="Pfad_1784" class="st1" d="M0,0h24.2"/>
	</g>
	<g>
		<g id="Gruppe_3088" transform="translate(0 -28.346)">
			<g id="Gruppe_3085" transform="translate(13.944 8.407)">
				<path id="Pfad_1785" class="st1" d="M6.2,23.4c3.4,0,6.2-5.2,6.2-11.7S9.6,0,6.2,0S0,5.2,0,11.7S2.8,23.4,6.2,23.4z"/>
			</g>
			<g id="Gruppe_3086" transform="translate(11.38 12.169)">
				<path id="Pfad_1786" class="st1" d="M17.5,0c-2.7,1.4-5.7,2.1-8.7,2.1C5.7,2.2,2.7,1.4,0,0"/>
			</g>
			<g id="Gruppe_3087" transform="translate(11.465 26.021)">
				<path id="Pfad_1787" class="st1" d="M17.5,2.1C14.8,0.7,11.7-0.1,8.7,0c-3-0.1-6,0.6-8.7,2"/>
			</g>
		</g>
	</g>
</g>
</svg>
