<?xml version="1.0" encoding="utf-8"?>
<!-- Generator: Adobe Illustrator 27.8.1, SVG Export Plug-In . SVG Version: 6.00 Build 0)  -->
<svg version="1.1" id="Ebene_1" xmlns="http://www.w3.org/2000/svg" xmlns:xlink="http://www.w3.org/1999/xlink" x="0px" y="0px"
	 viewBox="0 0 71.8 61.6" style="enable-background:new 0 0 71.8 61.6;" xml:space="preserve">
<style type="text/css">
	.st0{fill:none;stroke:#3E668E;stroke-width:1.5;}
	.st1{fill:#3E668E;}
</style>
<g id="Gruppe_3050" transform="translate(-640.6 -3503.452)">
	<g id="Gruppe_3046" transform="translate(660.289 3504.202)">
		<path id="Pfad_1740_00000141453560159484113740000001632906368668105399_" class="st0" d="M18.7,50.1c6.4,1.8,13.4,1,19.5-2.5
			l12.9,3.4l-3.4-12.9c5.7-10,4.1-22.5-4-30.7C33.7-2.5,17.5-2.6,7.5,7.3C4,10.8,1.7,15.1,0.6,19.5"/>
	</g>
	<g id="Gruppe_3039" transform="translate(641.656 3523.801)">
		<g id="Gruppe_3006" transform="translate(0 0)">
			<path id="Pfad_1740-2" class="st0" d="M5.9,5.9C13.7-2,26.4-2,34.3,5.8s7.9,20.6,0.1,28.4C28,40.7,18,42,10.1,37.5L0,40.2
				l2.7-10.1C-1.8,22.2-0.5,12.3,5.9,5.9z"/>
		</g>
	</g>
</g>
<g>
	<path class="st1" d="M18.5,48.6c3.1,0,5.5-1.8,5.5-4.7c0-2.2-1.4-3.5-3.9-4.6l-1.8-0.8c-1.1-0.5-1.8-0.9-1.8-1.8c0-1,0.9-1.5,2-1.5
		c1.3,0,2.2,0.7,3,1.8l2.2-1.7c-0.9-1.7-2.7-3-5.2-3c-3,0-5.2,1.7-5.2,4.5c0,2.3,1.6,3.6,3.8,4.5l1.7,0.8c1.2,0.6,2,0.9,2,2
		c0,1.1-0.9,1.7-2.2,1.7c-1.9,0-3-1.1-3.9-2.3l-2.2,1.7C13.6,47.2,15.8,48.6,18.5,48.6"/>
	<path class="st1" d="M27.7,48.6c1.2,0,2.3-1,2.3-2.3s-1-2.3-2.3-2.3c-1.2,0-2.3,1-2.3,2.3S26.5,48.6,27.7,48.6"/>
</g>
</svg>
