<?xml version="1.0" encoding="utf-8"?>
<!-- Generator: Adobe Illustrator 26.3.1, SVG Export Plug-In . SVG Version: 6.00 Build 0)  -->
<svg version="1.1" id="Ebene_1" xmlns="http://www.w3.org/2000/svg" xmlns:xlink="http://www.w3.org/1999/xlink" x="0px" y="0px"
	 viewBox="0 0 60 60" style="enable-background:new 0 0 60 60;" xml:space="preserve">
<style type="text/css">
	.st0{fill:#3E668E;}
	.st1{fill:none;stroke:#FFFFFF;stroke-linecap:round;stroke-linejoin:round;}
</style>
<g id="Gruppe_1851" transform="translate(-1247 -1299)">
	<path id="Pfad_1181" class="st0" d="M1277,1299c16.6,0,30,13.4,30,30s-13.4,30-30,30s-30-13.4-30-30S1260.4,1299,1277,1299z"/>
	<path id="Pfad_1191" class="st1" d="M1267.9,1328.1c0-5.1,4.2-9.3,9.3-9.3c5.1,0,9.3,4.2,9.3,9.3c0,0,0,0,0,0
		c0,5.1-4.2,9.3-9.3,9.3c-5.1,0.1-9.2-4-9.3-9C1267.9,1328.2,1267.9,1328.1,1267.9,1328.1z M1277.1,1318.5v-4.8 M1279.2,1313.5h-3.9
		 M1284,1321.3l3.5-3.5 M1288.9,1319.2l-2.9-2.8 M1286.5,1328.1h5.1 M1291.8,1330.2v-3.9 M1284,1335l3.5,3.5 M1286.1,1339.9l2.9-2.9
		 M1277.1,1337.4v5.3 M1275.1,1342.8h3.9 M1270.3,1335l-3.4,3.4 M1265.4,1337.1l2.8,2.8 M1267.9,1328.1h-5.2 M1262.5,1326.1v3.9
		 M1270.3,1321.3l-3.4-3.4 M1268.2,1316.4l-2.8,2.8"/>
</g>
</svg>
