<?xml version="1.0" encoding="utf-8"?>
<!-- Generator: Adobe Illustrator 26.3.1, SVG Export Plug-In . SVG Version: 6.00 Build 0)  -->
<svg version="1.1" id="Komponente_37_6" xmlns="http://www.w3.org/2000/svg" xmlns:xlink="http://www.w3.org/1999/xlink" x="0px"
	 y="0px" viewBox="0 0 60 60" style="enable-background:new 0 0 60 60;" xml:space="preserve">
<style type="text/css">
	.st0{fill:#F4F6F8;}
	.st1{fill:none;stroke:#7E90A5;stroke-linecap:round;stroke-linejoin:round;}
</style>
<g id="Gruppe_1896" transform="translate(0 60)">
	<g id="Gruppe_1889" transform="translate(30 0)">
		<path id="Pfad_1237" class="st0" d="M0,0c16.6,0,30-13.4,30-30S16.6-60,0-60s-30,13.4-30,30S-16.6,0,0,0"/>
	</g>
	<g id="Gruppe_1892" transform="translate(18.642 -30.198)">
		<path id="Pfad_1240" class="st1" d="M0,0.1L0,0.1l0.3-0.5l0,0c2.1-3.4,5-7.3,5.1-7.4c1.4-2,2.7-4,3.8-6.1c1.1,2.1,2.4,4.2,3.8,6.1
			c0,0,3,4,5.1,7.4c0,0,0,0,0,0L18.5,0l0,0l0,0c2.9,5.1,1.1,11.6-4,14.5S2.9,15.7,0,10.6C-1.9,7.3-1.9,3.3,0,0.1z"/>
	</g>
	<path class="st1" d="M42.3-36.8L42.3-36.8l-0.2-0.3l0,0c-1.2-1.9-2.8-4.1-2.9-4.2c-0.8-1.1-1.5-2.3-2.1-3.4
		c-0.6,1.2-1.4,2.3-2.1,3.4c0,0-1.5,2.1-2.7,4c0.9,1.3,3,4.1,4.5,6.6c0,0,0,0,0,0l0.3,0.5l0,0c0.4,0.7,0.7,1.4,0.9,2.2
		c0.7-0.1,1.4-0.3,2-0.7C42.9-30.3,43.9-34,42.3-36.8z"/>
</g>
</svg>
