<?xml version="1.0" encoding="utf-8"?>
<!-- Generator: Adobe Illustrator 26.3.1, SVG Export Plug-In . SVG Version: 6.00 Build 0)  -->
<svg version="1.1" id="Ebene_1" xmlns="http://www.w3.org/2000/svg" xmlns:xlink="http://www.w3.org/1999/xlink" x="0px" y="0px"
	 viewBox="0 0 60 60" style="enable-background:new 0 0 60 60;" xml:space="preserve">
<style type="text/css">
	.st0{fill:#3E668E;}
	.st1{fill:none;stroke:#FFFFFF;stroke-linecap:round;stroke-linejoin:round;}
</style>
<circle id="Ellipse_282" class="st0" cx="30" cy="30" r="30"/>
<g>
	<g id="Gruppe_1732" transform="translate(298.716 1318.181)">
		<g id="Gruppe_1727" transform="translate(7.411) rotate(45)">
			<path id="Pfad_1126" class="st1" d="M-1111-726.8h8.3"/>
		</g>
		<g id="Gruppe_1728" transform="translate(0 7.411) rotate(45)">
			<path id="Pfad_1127" class="st1" d="M-1111-726.8h8.3"/>
		</g>
	</g>
	<g>
		<g id="Gruppe_1731" transform="translate(305.825 1309.477) rotate(45)">
			<g id="Gruppe_1729" transform="translate(0.459 0.46)">
				<path id="Pfad_1128" class="st1" d="M-1096.5-710.9v-10.6l2.5-4.2c0.3-0.6,0-1.1-0.7-1.1h-12.4c-0.7,0-1,0.5-0.7,1.1l2.5,4.2
					v10.6l-5.5,6.7c-0.4,0.6-0.2,1,0.5,1h18.7c0.7,0,0.9-0.5,0.5-1L-1096.5-710.9z"/>
			</g>
			<g id="Gruppe_1730" transform="translate(9.274 24.151)">
				<path id="Pfad_1129" class="st1" d="M-1108.5-726.8v9.1l-1.3,2.8l-1.3-2.8v-9.1"/>
			</g>
		</g>
	</g>
</g>
</svg>
