<?xml version="1.0" encoding="utf-8"?>
<!-- Generator: Adobe Illustrator 27.8.1, SVG Export Plug-In . SVG Version: 6.00 Build 0)  -->
<svg version="1.1" id="Ebene_1" xmlns="http://www.w3.org/2000/svg" xmlns:xlink="http://www.w3.org/1999/xlink" x="0px" y="0px"
	 viewBox="0 0 131.5 61.1" style="enable-background:new 0 0 131.5 61.1;" xml:space="preserve">
<style type="text/css">
	.st0{fill:none;stroke:#3E668E;stroke-width:1.5;stroke-linecap:round;stroke-linejoin:round;}
	.st1{clip-path:url(#SVGID_00000079485617047280167580000010190893151608700558_);}
	.st2{fill:none;stroke:#3E668E;stroke-width:1.5;}
</style>
<g id="Gruppe_3049" transform="translate(-283.657 -3503.25)">
	<g id="Gruppe_3038" transform="translate(375.373 3510.37)">
		<path id="Pfad_1701" class="st0" d="M0,45.7v7.5h39V0h-7.6"/>
	</g>
	<g id="Gruppe_3040" transform="translate(290.779 3510.37)">
		<path id="Pfad_1701-2" class="st0" d="M0,45.7v7.5h39V0h-7.6"/>
	</g>
	<path id="Pfad_1756" class="st0" d="M369,3555.9h37.8V3504H369V3555.9z"/>
	<path id="Pfad_1757" class="st0" d="M284.4,3555.9h37.8V3504h-37.8V3555.9z"/>
	<g id="Gruppe_3047" transform="translate(379.789 3522.801)">
		<path id="Pfad_1703" class="st0" d="M16.2,0H0"/>
	</g>
	<g id="Gruppe_3048" transform="translate(295.195 3522.801)">
		<path id="Pfad_1703-2" class="st0" d="M16.2,0H0"/>
	</g>
	<g id="Gruppe_3041" transform="translate(379.789 3530.217)">
		<path id="Pfad_1704" class="st0" d="M16.2,0H0"/>
	</g>
	<g id="Gruppe_3042" transform="translate(295.195 3530.217)">
		<path id="Pfad_1704-2" class="st0" d="M16.2,0H0"/>
	</g>
	<g id="Gruppe_3043" transform="translate(379.789 3538.083)">
		<path id="Pfad_1705" class="st0" d="M16.2,0H0"/>
	</g>
	<g id="Gruppe_3044" transform="translate(295.195 3538.083)">
		<path id="Pfad_1705-2" class="st0" d="M16.2,0H0"/>
	</g>
	<g id="Gruppe_3045" transform="translate(339.406 3536.965)">
		<g>
			<defs>
				<rect id="SVGID_1_" x="0" y="-8.2" width="20" height="8.2"/>
			</defs>
			<clipPath id="SVGID_00000000907392519740359120000007395980221979292828_">
				<use xlink:href="#SVGID_1_"  style="overflow:visible;"/>
			</clipPath>
			<g id="Gruppe_3000" style="clip-path:url(#SVGID_00000000907392519740359120000007395980221979292828_);">
				<g id="Gruppe_2997" transform="translate(0.734 -4.09)">
					<path id="Pfad_1747" class="st2" d="M0,0h18.5"/>
				</g>
				<g id="Gruppe_2998" transform="translate(4.739 -0.366)">
					<path id="Pfad_1748" class="st2" d="M0,0l-4-3.7l4-3.7"/>
				</g>
				<g id="Gruppe_2999" transform="translate(15.261 -7.813)">
					<path id="Pfad_1749" class="st2" d="M0,0l4,3.7L0,7.4"/>
				</g>
			</g>
		</g>
	</g>
</g>
</svg>
